<?xml version="1.0" standalone="no"?>
<!DOCTYPE svg PUBLIC "-//W3C//DTD SVG 1.1//EN" "http://www.w3.org/Graphics/SVG/1.1/DTD/svg11.dtd" >
<svg xmlns="http://www.w3.org/2000/svg" xmlns:xlink="http://www.w3.org/1999/xlink" version="1.1">
<metadata></metadata>
<defs>
<font id="foro_sanslight" horiz-adv-x="1134" >
<font-face units-per-em="2048" ascent="1513" descent="-535" />
<missing-glyph horiz-adv-x="468" />
<glyph unicode="&#xfb01;" horiz-adv-x="1185" d="M59 901v103l181 14v88q0 213 75 297q93 104 267 104q94 0 184 -18l-18 -111q-102 15 -146 15q-127 0 -182 -76q-45 -59 -45 -221v-78h637v-1018h-140v901h-497v-901h-135v901h-181zM852 1305q0 48 27 72t67 24q88 0 88 -96q0 -47 -25.5 -70t-66.5 -23q-38 0 -64 22 t-26 71z" />
<glyph unicode="&#xfb02;" horiz-adv-x="1189" d="M59 901v103l181 14v84q0 203 82 299q92 106 323 106q182 0 367 -22v-1485h-138v1380q-114 13 -227 13q-164 0 -221 -76q-51 -71 -51 -227v-72h291v-117h-291v-901h-135v901h-181z" />
<glyph unicode="&#xfb03;" horiz-adv-x="1824" d="M59 901v103l181 14v47q0 213 75 297q93 104 267 104q79 0 184 -18l-18 -113q-83 17 -146 17q-131 0 -182 -76q-45 -65 -45 -217v-41h502v88q0 211 77 297q93 104 269 104q93 0 180 -18l-17 -111q-103 15 -145 15q-123 0 -180 -76q-47 -62 -47 -221v-78h635v-1018h-138 v901h-497v-901h-137v901h-502v-901h-135v901h-181zM1493 1305q0 48 26 72t66 24q88 0 88 -96q0 -47 -25.5 -70t-66.5 -23q-36 0 -62 22t-26 71z" />
<glyph unicode="&#xfb04;" horiz-adv-x="1828" d="M59 901v103l181 14v47q0 213 75 297q93 104 267 104q79 0 184 -18l-18 -113q-83 17 -146 17q-131 0 -182 -76q-45 -65 -45 -217v-41h502v84q0 205 84 299q95 106 323 106q178 0 367 -22v-1485h-140v1380q-111 13 -225 13q-166 0 -221 -76q-51 -67 -51 -227v-72h289v-117 h-289v-901h-137v901h-502v-901h-135v901h-181z" />
<glyph horiz-adv-x="0" />
<glyph horiz-adv-x="682" />
<glyph unicode=" "  horiz-adv-x="468" />
<glyph unicode="&#x09;" horiz-adv-x="468" />
<glyph unicode="&#xa0;" horiz-adv-x="468" />
<glyph unicode="!" horiz-adv-x="585" d="M203 86q0 53 30 81t72 28q44 0 73.5 -25.5t29.5 -83.5q0 -49 -29 -74.5t-76 -25.5q-41 0 -70.5 25t-29.5 75zM231 1384h154q0 -57 -20 -968h-115q-19 962 -19 968z" />
<glyph unicode="&#x22;" horiz-adv-x="718" d="M123 1427h145l-24 -559h-97zM451 1427h145l-27 -559h-92z" />
<glyph unicode="#" horiz-adv-x="1167" d="M84 453v108h254l37 244h-238v108h250l62 418h88l-62 -418h285l61 418h86l-61 -418h235v-108h-250l-34 -244h231v-108h-248l-65 -453h-86l65 453h-286l-64 -453h-88l66 453h-238zM424 561h287l34 244h-286z" />
<glyph unicode="$" horiz-adv-x="1103" d="M94 80l47 121q72 -38 170 -63t191 -25v497l-105 39q-134 51 -192 133t-58 205q0 134 91.5 227t263.5 113v211h84v-207q185 0 348 -57l-33 -123q-141 49 -315 57v-481l90 -33q150 -57 216 -137.5t66 -202.5q0 -151 -95.5 -247t-276.5 -113v-201h-84v197q-117 1 -225.5 26 t-182.5 64zM279 993q0 -40 7.5 -68t30.5 -57.5t68.5 -55t116.5 -50.5v442q-117 -16 -170 -76t-53 -135zM586 117q115 13 176 68.5t61 146.5q0 85 -47.5 138.5t-189.5 109.5v-463z" />
<glyph unicode="%" horiz-adv-x="1722" d="M72 899q0 207 85 324.5t244 117.5q153 0 228.5 -105.5t75.5 -299.5q0 -224 -84 -344.5t-236 -120.5q-156 0 -234.5 113t-78.5 315zM180 911q0 -181 52.5 -263.5t154.5 -82.5t157.5 89t55.5 266q0 159 -45.5 243t-159.5 84q-215 0 -215 -336zM487 0l652 1321h84 l-650 -1321h-86zM1016 410q0 207 85.5 324.5t244.5 117.5q152 0 227.5 -106t75.5 -300q0 -224 -84 -344t-236 -120q-156 0 -234.5 113t-78.5 315zM1124 422q0 -181 52.5 -263.5t154.5 -82.5t157.5 88.5t55.5 265.5q0 160 -45.5 244t-159.5 84q-101 0 -158 -82t-57 -254z" />
<glyph unicode="&#x26;" horiz-adv-x="1427" d="M102 375q0 152 83 247t259 171q-57 86 -81.5 154t-24.5 151q0 136 90 225.5t266 89.5q147 0 229.5 -69.5t82.5 -198.5q0 -59 -20 -110.5t-52.5 -91t-83.5 -77t-101.5 -65.5t-117.5 -58q180 -252 393 -434q57 63 98.5 163t57.5 200l131 -21q-22 -122 -79.5 -243 t-115.5 -179q123 -96 297 -163l-43 -113q-190 52 -342 178q-177 -160 -440 -160q-213 0 -349.5 111t-136.5 293zM240 387q0 -37 9.5 -74t35 -76.5t63.5 -69.5t100.5 -49.5t141.5 -19.5q115 0 191.5 31.5t148.5 87.5q-227 198 -426 475q-141 -62 -202.5 -132.5t-61.5 -172.5z M471 1096q0 -128 94 -258q164 66 241 138t77 159q0 165 -189 165q-60 0 -105 -17t-70 -47t-36.5 -65t-11.5 -75z" />
<glyph unicode="'" horiz-adv-x="391" d="M123 1427h145l-24 -559h-97z" />
<glyph unicode="(" horiz-adv-x="630" d="M100 565q0 157 31 293.5t90 246t126.5 194t156.5 165.5h104q-84 -87 -148 -175t-119 -198t-84.5 -241.5t-29.5 -278.5q0 -98 14 -191t33 -165t54 -148t63 -126t74 -113.5t72 -96t73 -87.5h-102q-54 47 -104 101.5t-107.5 141.5t-99 182.5t-69.5 226t-28 269.5z" />
<glyph unicode=")" horiz-adv-x="632" d="M20 1462h101q53 -46 103 -101t107 -141.5t98.5 -182.5t69 -225.5t27.5 -268.5q0 -158 -31 -295t-88.5 -246t-125 -193.5t-156.5 -164.5h-102q84 86 147.5 174t118 197.5t83.5 241.5t29 280q0 97 -14 190t-33 165t-54 148t-63 126t-73.5 113.5t-71.5 96t-72 86.5z" />
<glyph unicode="*" horiz-adv-x="839" d="M51 1112l33 96q142 -44 295 -102q-10 160 -10 311h100q0 -105 -8 -313q124 48 295 104l32 -98q-143 -44 -307 -90q102 -121 195 -244l-80 -59q-101 136 -180 252q-96 -141 -176 -252l-84 57q107 139 196 248q-163 46 -301 90z" />
<glyph unicode="+" horiz-adv-x="1433" d="M184 551v106h478v478h108v-478h479v-106h-479v-481h-106v481h-480z" />
<glyph unicode="," horiz-adv-x="380" d="M4 -322q42 94 80.5 235.5t52.5 279.5h150q-18 -141 -65.5 -280.5t-102.5 -234.5h-115z" />
<glyph unicode="-" horiz-adv-x="622" d="M76 459v129h471v-129h-471z" />
<glyph unicode="." horiz-adv-x="380" d="M88 86q0 53 30.5 81t74.5 28q42 0 71 -25.5t29 -83.5q0 -49 -29 -74.5t-76 -25.5q-41 0 -70.5 25t-29.5 75z" />
<glyph unicode="/" horiz-adv-x="772" d="M-20 -205l671 1665h111l-670 -1665h-112z" />
<glyph unicode="0" d="M86 651q0 332 128.5 514.5t371.5 182.5q230 0 345.5 -165t115.5 -472q0 -360 -127.5 -550t-360.5 -190q-237 0 -355 178t-118 502zM227 672q0 -299 84.5 -437.5t251.5 -138.5q166 0 256 149.5t90 438.5q0 97 -8.5 174t-31.5 147.5t-59 117.5t-94.5 74.5t-135.5 27.5 q-167 0 -260 -137.5t-93 -415.5z" />
<glyph unicode="1" d="M215 1098q201 131 352 241h117v-1339h-135v1178q-155 -104 -277 -174z" />
<glyph unicode="2" d="M74 0v94q358 283 565 490q186 189 186 379q0 116 -64 189t-204 73q-176 0 -369 -115l-45 102q217 136 430 136q196 0 296 -97t100 -272q0 -139 -68.5 -261.5t-195.5 -244.5q-157 -152 -420 -350q199 2 731 2v-125h-942z" />
<glyph unicode="3" d="M123 18l31 121q44 -18 129 -30.5t137 -12.5q411 0 411 299q0 50 -14.5 89t-49 73.5t-102.5 53t-165 18.5q-70 0 -131 -6l-4 114q119 6 203.5 29.5t131.5 62t67.5 84.5t20.5 103q0 209 -251 209q-162 0 -338 -103l-43 107q94 56 200 87.5t197 31.5q373 0 373 -318 q0 -112 -73 -201.5t-198 -119.5q154 -12 238 -93t84 -215q0 -116 -40.5 -201t-115.5 -134.5t-171.5 -73t-217.5 -23.5q-79 0 -175.5 16.5t-133.5 32.5z" />
<glyph unicode="4" d="M88 346v88l633 905h135v-874h207v-119h-207v-366h-137v366h-631zM236 465h483q0 548 4 704q-152 -242 -487 -704z" />
<glyph unicode="5" d="M129 20l29 119q37 -14 115.5 -27.5t158.5 -13.5q207 0 306.5 88.5t99.5 243.5t-85 221t-249 66q-130 0 -291 -53l72 661h655v-125h-545l-45 -401q113 30 211 30q203 0 312.5 -98.5t109.5 -288.5q0 -237 -145 -354t-410 -117q-77 0 -161 13.5t-138 35.5z" />
<glyph unicode="6" d="M133 582q0 174 37.5 313t113.5 241t196.5 157t279.5 55q146 0 244 -39l-31 -119q-41 14 -109 24.5t-104 10.5q-124 0 -214.5 -39t-146 -114t-86 -172.5t-41.5 -227.5q57 83 163.5 133.5t215.5 50.5q180 0 282.5 -103.5t102.5 -312.5q0 -206 -118 -337.5t-326 -131.5 q-68 0 -130 18t-123 62t-106 111.5t-72.5 175.5t-27.5 244zM274 549q1 -66 9.5 -126t31.5 -121.5t58 -105.5t93 -72t132 -28q138 0 218.5 93.5t80.5 250.5q0 138 -68.5 217.5t-212.5 79.5q-103 0 -197 -55.5t-145 -132.5z" />
<glyph unicode="7" d="M115 1200v125h891v-100q-310 -649 -510 -1225h-158q171 490 520 1200h-743z" />
<glyph unicode="8" d="M125 346q0 127 73 215t212 131q-238 92 -238 312q0 160 111.5 252t291.5 92q186 0 290 -86.5t104 -233.5q0 -107 -61 -194.5t-195 -139.5q297 -93 297 -334q0 -180 -123.5 -284.5t-323.5 -104.5q-198 0 -318 101t-120 274zM264 354q0 -116 79.5 -190t221.5 -74 q140 0 222.5 71t82.5 183q0 121 -80 188.5t-245 106.5q-141 -34 -211 -109.5t-70 -175.5zM309 1001q0 -111 66.5 -166.5t208.5 -86.5q117 27 185.5 93.5t68.5 164.5t-63.5 161.5t-199.5 63.5q-129 0 -197.5 -63.5t-68.5 -166.5z" />
<glyph unicode="9" d="M102 881q0 205 120.5 336t332.5 131q70 0 132.5 -17.5t123 -61.5t103.5 -111.5t69.5 -175t26.5 -243.5q0 -175 -36.5 -313.5t-111.5 -241.5t-196 -158t-283 -55q-147 0 -248 39l39 121q35 -14 104 -24.5t103 -10.5q104 0 183 26t131 71.5t88 116.5t54.5 151.5t28.5 185.5 q-59 -82 -162.5 -130t-211.5 -48q-181 0 -285.5 101.5t-104.5 310.5zM248 881q0 -138 67 -215.5t211 -77.5q106 0 195.5 55t142.5 133q-1 67 -8.5 126t-29 120t-55.5 104.5t-91.5 71t-132.5 27.5q-139 0 -219 -93t-80 -251z" />
<glyph unicode=":" horiz-adv-x="421" d="M129 86q0 54 30.5 81.5t73.5 27.5t72 -25.5t29 -83.5q0 -49 -29 -74.5t-76 -25.5q-41 0 -70.5 25t-29.5 75zM129 883q0 53 30 80.5t74 27.5q42 0 71.5 -25.5t29.5 -82.5q0 -49 -29.5 -76t-75.5 -27q-41 0 -70.5 25.5t-29.5 77.5z" />
<glyph unicode=";" horiz-adv-x="421" d="M41 -322q42 94 80.5 235.5t52.5 279.5h148q-16 -141 -63.5 -280.5t-104.5 -234.5h-113zM137 883q0 53 30.5 80.5t74.5 27.5t73 -25.5t29 -82.5q0 -49 -29.5 -76t-76.5 -27q-40 0 -70.5 26t-30.5 77z" />
<glyph unicode="&#x3c;" horiz-adv-x="1433" d="M236 545v108l923 453v-123l-801 -381l801 -371v-129z" />
<glyph unicode="=" horiz-adv-x="1433" d="M184 346v105h1065v-105h-1065zM184 745v107h1065v-107h-1065z" />
<glyph unicode="&#x3e;" horiz-adv-x="1433" d="M274 102v125l803 381l-803 371v127l924 -442v-107z" />
<glyph unicode="?" horiz-adv-x="837" d="M74 1339q149 76 336 76q174 0 260 -75t86 -212q0 -114 -40.5 -185t-162.5 -175q-83 -73 -108 -111.5t-25 -109.5q0 -81 10 -125l-119 -12q-18 77 -18 143q0 80 26 133t111 123q97 80 139.5 148.5t42.5 146.5q0 89 -55.5 138.5t-169.5 49.5q-67 0 -145 -17t-136 -44z M272 86q0 53 30.5 81t74.5 28q42 0 71 -25.5t29 -83.5q0 -49 -29 -74.5t-75 -25.5q-41 0 -71 25t-30 75z" />
<glyph unicode="@" horiz-adv-x="1648" d="M125 414q0 177 61 331.5t166.5 264t253.5 172.5t316 63q283 0 448.5 -158.5t165.5 -431.5q0 -149 -54 -280t-144.5 -209t-194.5 -78q-56 0 -91.5 28.5t-41.5 76.5q-2 8 -2 34q-151 -151 -310 -151q-112 0 -179.5 69.5t-67.5 198.5q0 96 35.5 209t103.5 197 q138 170 330 170q121 0 221 -56l28 66l74 -8l-121 -516q-20 -94 -20 -138q0 -92 74 -92q66 0 129.5 67t103 177.5t39.5 228.5q0 245 -141.5 381.5t-386.5 136.5q-204 0 -366.5 -99t-251.5 -270.5t-89 -381.5q0 -278 170.5 -449.5t472.5 -171.5q160 0 285 39t254 115l41 -70 q-282 -168 -594 -168q-322 0 -519.5 194.5t-197.5 508.5zM553 354q0 -98 47.5 -143t122.5 -45q138 0 283 145l108 473q-92 50 -201 50q-139 0 -245 -138q-52 -68 -83.5 -165t-31.5 -177z" />
<glyph unicode="A" horiz-adv-x="1280" d="M8 0l561 1384h156l547 -1384h-154l-168 424h-618l-174 -424h-150zM381 549h524q-203 525 -258 676q-93 -255 -266 -676z" />
<glyph unicode="B" horiz-adv-x="1234" d="M209 0v1384h268q145 0 250 -10q328 -36 328 -313q0 -262 -250 -330q330 -35 330 -332q0 -137 -68 -229t-199 -133q-122 -37 -358 -37h-301zM350 127h215q179 0 273 37q153 68 153 248q0 80 -46.5 135t-119.5 78q-102 32 -233 32h-242v-530zM350 778h230q134 0 206 39 q125 70 125 223q0 76 -44.5 128.5t-112.5 68.5q-82 20 -197 20h-207v-479z" />
<glyph unicode="C" horiz-adv-x="1277" d="M104 657q0 373 169.5 564.5t490.5 191.5q225 0 385 -72l-43 -120q-162 65 -352 65q-87 0 -160 -18.5t-138.5 -63t-110.5 -114t-71 -177t-26 -245.5q0 -286 130.5 -427t358.5 -141q116 0 216 39t208 115l68 -100q-223 -183 -518 -183q-275 0 -441 181t-166 505z" />
<glyph unicode="D" horiz-adv-x="1415" d="M209 0v1384h264q310 0 455 -51q69 -24 125 -56.5t105 -82.5t82 -113t52 -150t19 -192q0 -278 -101 -448.5t-323 -239.5q-167 -51 -461 -51h-217zM350 131h129q222 0 344 39q182 58 262 197t80 362q0 330 -237 455q-128 67 -412 67h-166v-1120z" />
<glyph unicode="E" horiz-adv-x="1171" d="M209 0v1384h833v-133h-692v-467h643v-131h-643v-522h731v-131h-872z" />
<glyph unicode="F" horiz-adv-x="1099" d="M209 0v1384h819v-133h-678v-516h625v-131h-625v-604h-141z" />
<glyph unicode="G" horiz-adv-x="1390" d="M104 657q0 375 169.5 565.5t496.5 190.5q122 0 229 -21t175 -51l-44 -120q-162 65 -370 65q-88 0 -161.5 -18.5t-139.5 -63t-112 -114t-72.5 -177t-26.5 -245.5q0 -142 37.5 -252t104 -177.5t154.5 -102t193 -34.5q206 0 353 72v391h-299v129h436v-606 q-213 -117 -510 -117q-274 0 -443.5 184t-169.5 502z" />
<glyph unicode="H" horiz-adv-x="1456" d="M209 0v1384h141v-602h754v602h141v-1384h-141v651h-754v-651h-141z" />
<glyph unicode="I" horiz-adv-x="559" d="M209 0v1384h141v-1384h-141z" />
<glyph unicode="J" horiz-adv-x="790" d="M8 10l31 121q88 -33 192 -33q137 0 185 95q35 66 35 262v929h137v-927q0 -216 -35 -305q-33 -82 -113 -130.5t-196 -48.5q-146 0 -236 37z" />
<glyph unicode="K" horiz-adv-x="1245" d="M209 0v1384h141v-745l668 745h174l-500 -550l547 -834h-168l-477 717l-244 -262v-455h-141z" />
<glyph unicode="L" horiz-adv-x="1142" d="M209 0v1384h141v-1253h727v-131h-868z" />
<glyph unicode="M" horiz-adv-x="1701" d="M188 0l41 1384h201q375 -827 426 -962q126 304 416 962h192l49 -1384h-141q-42 1146 -43 1217q-86 -231 -424 -990h-110q-94 210 -189.5 421.5t-129.5 287t-65.5 148t-54.5 128.5q-2 -281 -30 -1212h-138z" />
<glyph unicode="N" horiz-adv-x="1454" d="M209 0v1384h162q426 -629 547.5 -814t193.5 -308q-6 289 -6 1122h139v-1384h-137q-709 1074 -762 1159q2 -195 2 -1159h-139z" />
<glyph unicode="O" horiz-adv-x="1480" d="M104 672q0 358 170.5 549.5t481.5 191.5q302 0 461 -174.5t159 -505.5q0 -365 -169.5 -563.5t-473.5 -198.5q-298 0 -463.5 188.5t-165.5 512.5zM248 700q0 -307 132 -454.5t363 -147.5q227 0 357.5 157t130.5 447q0 106 -14.5 192t-49.5 161t-90 125.5t-139.5 79 t-194.5 28.5q-235 0 -365 -153.5t-130 -434.5z" />
<glyph unicode="P" horiz-adv-x="1198" d="M209 0v1384h299q229 0 328 -26q268 -67 268 -357q0 -163 -76 -261.5t-213 -133.5q-103 -28 -317 -28h-148v-578h-141zM350 698h144q191 0 278 27q89 28 136.5 91t47.5 177q0 182 -161 236q-76 24 -265 24h-180v-555z" />
<glyph unicode="Q" horiz-adv-x="1480" d="M104 672q0 358 170.5 549.5t481.5 191.5q302 0 461 -174.5t159 -505.5q0 -311 -124.5 -502t-352.5 -241q35 -20 41 -23q143 -70 270.5 -101t290.5 -32l-8 -121q-220 0 -377.5 47t-320.5 144q-86 53 -166 76q-250 32 -387.5 215t-137.5 477zM248 700q0 -307 132 -454.5 t363 -147.5q227 0 357.5 157t130.5 447q0 106 -14.5 192t-49.5 161t-90 125.5t-139.5 79t-194.5 28.5q-235 0 -365 -153.5t-130 -434.5z" />
<glyph unicode="R" horiz-adv-x="1200" d="M209 0v1384h330q217 0 319 -32q111 -35 172.5 -120.5t61.5 -219.5q0 -144 -75.5 -242t-221.5 -139l381 -631h-160l-354 608q-58 -4 -87 -4h-225v-604h-141zM350 727h207q181 0 264 45q55 31 86 92.5t31 139.5q0 176 -147 229q-73 29 -256 29h-185v-535z" />
<glyph unicode="S" horiz-adv-x="1103" d="M90 68l43 125q198 -95 379 -95q162 0 250 66t88 182q0 65 -18.5 106.5t-76.5 82t-169 81.5l-180 66q-144 54 -205.5 141.5t-61.5 218.5q0 162 120.5 266.5t350.5 104.5q188 0 357 -59l-33 -129q-78 28 -175 45.5t-173 17.5q-83 0 -145 -22t-94.5 -58.5t-48 -76 t-15.5 -80.5q0 -42 7.5 -72.5t30 -62t67.5 -59.5t116 -54l194 -74q157 -58 228 -144t71 -216q0 -178 -124 -288t-359 -110q-237 0 -424 97z" />
<glyph unicode="T" horiz-adv-x="1187" d="M63 1251v133h1059v-133h-456v-1251h-142v1251h-461z" />
<glyph unicode="U" horiz-adv-x="1429" d="M197 569v815h141v-813q0 -206 31 -288q74 -185 348 -185q254 0 334 168q41 87 41 295v823h139v-817q0 -148 -13 -233.5t-49 -149.5q-56 -101 -174.5 -157t-285.5 -56q-166 0 -288.5 57.5t-174.5 174.5q-49 108 -49 366z" />
<glyph unicode="V" horiz-adv-x="1193" d="M8 1384h156q374 -1037 428 -1202q48 150 436 1202h156l-520 -1384h-150z" />
<glyph unicode="W" horiz-adv-x="1898" d="M39 1384h151q38 -139 85.5 -310t69.5 -249.5t50 -181.5t40.5 -149.5t28.5 -106.5t25.5 -100t20.5 -86q96 340 367 1183h147q253 -824 346 -1181q40 162 98 368.5t236 812.5h156l-412 -1384h-150q-68 226 -142.5 473.5t-101 336t-55.5 187.5t-53 189q-95 -329 -375 -1186 h-151z" />
<glyph unicode="X" horiz-adv-x="1304" d="M43 0l514 727l-467 657h170q288 -391 399 -553q18 26 66 97t127.5 185t191.5 271h164l-465 -659l519 -725h-177q-128 179 -230 319.5t-145 200t-67 94.5q-48 -65 -434 -614h-166z" />
<glyph unicode="Y" horiz-adv-x="1220" d="M10 1384h166q376 -598 434 -702q48 84 439 702h161l-534 -837v-547h-141v547z" />
<glyph unicode="Z" horiz-adv-x="1257" d="M59 0v94q327 419 538 691t273.5 353t87.5 113h-835l18 133h1014v-96q-610 -798 -891 -1155h903v-133h-1108z" />
<glyph unicode="[" horiz-adv-x="579" d="M180 -344v1788h350v-88h-231v-1610h231v-90h-350z" />
<glyph unicode="\" horiz-adv-x="772" d="M2 1460h111l671 -1665h-112z" />
<glyph unicode="]" horiz-adv-x="583" d="M49 -256h232v1610h-232v90h350v-1788h-350v88z" />
<glyph unicode="^" horiz-adv-x="1445" d="M276 575l383 809h127l385 -809h-124l-326 687l-322 -687h-123z" />
<glyph unicode="_" horiz-adv-x="1026" d="M0 -190h1026v-80h-1026v80z" />
<glyph unicode="`" horiz-adv-x="411" d="M-8 1493h188l248 -305h-143z" />
<glyph unicode="a" horiz-adv-x="1071" d="M94 295q0 197 201 250q150 38 469 49v92q0 124 -35 174q-45 68 -176 68q-170 0 -365 -72l-26 102q224 91 418 91q229 0 292 -148q29 -71 29 -235v-666h-125l-6 131q-72 -77 -154 -115.5t-192 -38.5q-154 0 -242 96t-88 222zM231 291q0 -34 11.5 -67.5t36.5 -65t71.5 -51 t108.5 -19.5q166 0 305 139v265q-267 -10 -404 -46q-129 -33 -129 -155z" />
<glyph unicode="b" horiz-adv-x="1177" d="M176 39v1456l137 23v-641q215 165 410 165q174 0 267 -128t93 -384q0 -280 -128 -419.5t-357 -139.5q-218 0 -422 68zM313 131q115 -43 285 -43q175 0 258.5 114.5t83.5 315.5q0 85 -13 153.5t-42 125t-81 87.5t-124 31q-97 0 -175.5 -32t-191.5 -105v-647z" />
<glyph unicode="c" horiz-adv-x="980" d="M94 492q0 277 133.5 417t370.5 140q147 0 297 -58l-39 -117q-125 54 -262 54q-180 0 -271.5 -109.5t-91.5 -314.5q0 -416 347 -416q87 0 156.5 24t150.5 76l49 -94q-100 -64 -189 -93.5t-206 -29.5q-212 0 -328.5 137t-116.5 384z" />
<glyph unicode="d" horiz-adv-x="1183" d="M94 492q0 146 40 254.5t111 171.5t161 93.5t198 30.5q64 0 141 -12.5t123 -32.5v496l138 23v-1516h-129l-7 119q-143 -146 -356 -146q-198 0 -309 133t-111 386zM238 504q0 -96 19.5 -170t49.5 -118.5t72 -73.5t82 -39.5t84 -10.5q55 0 101.5 10t87 31.5t68 41t66.5 52.5 v650q-46 23 -121 36t-135 13q-180 0 -277 -104.5t-97 -317.5z" />
<glyph unicode="e" horiz-adv-x="1075" d="M94 496q0 139 37.5 246.5t103.5 173.5t151.5 99.5t186.5 33.5q98 0 171.5 -25.5t118.5 -68t72.5 -105.5t37.5 -128.5t10 -146.5q0 -76 -4 -96h-750q0 -36 4 -76q5 -46 17.5 -87.5t39 -84t64 -73.5t97 -50.5t133.5 -19.5q100 0 173.5 25.5t164.5 79.5l47 -91 q-105 -70 -196.5 -100.5t-209.5 -30.5q-155 0 -261.5 67t-157 183.5t-50.5 274.5zM233 590h617q2 12 2 37q0 157 -69 231t-212 74q-65 0 -122 -19t-104.5 -58.5t-77 -107t-34.5 -157.5z" />
<glyph unicode="f" horiz-adv-x="669" d="M59 901v103l181 14v88q0 213 75 297q93 104 267 104q81 0 186 -18l-16 -113q-87 17 -150 17q-127 0 -182 -76q-45 -59 -45 -221v-78h291v-117h-291v-901h-135v901h-181z" />
<glyph unicode="g" horiz-adv-x="1052" d="M55 -242q0 171 256 289q-73 23 -98 57.5t-25 83.5q0 44 25 84t86 90q-180 83 -180 312q0 77 25 143t74 118.5t130.5 83t186.5 30.5q116 0 192 -31h311v-117h-200q92 -73 92 -223q0 -118 -57.5 -201t-149 -121.5t-207.5 -38.5q-82 0 -135 15q-34 -23 -54 -50.5t-20 -50.5 q0 -27 17 -44.5t65 -28.5q17 -4 209 -42t254 -59q99 -31 139.5 -87t40.5 -150q0 -159 -135.5 -254.5t-370.5 -95.5q-231 0 -351 81t-120 207zM190 -221q0 -100 97.5 -151.5t255.5 -51.5t253 60t95 163q0 58 -30.5 92t-98.5 54q-144 42 -359 75q-119 -63 -166 -119.5 t-47 -121.5zM252 682q0 -132 70 -196t198 -64q127 0 205 67.5t78 192.5q0 114 -67.5 187t-200.5 73q-139 0 -211 -72.5t-72 -187.5z" />
<glyph unicode="h" horiz-adv-x="1187" d="M176 0v1493l137 23v-646q89 75 213 123.5t232 48.5q226 0 250 -194q10 -74 10 -246v-602h-135v563q0 155 -17 242q-11 49 -50.5 79.5t-106.5 30.5q-112 0 -205.5 -38.5t-190.5 -108.5v-768h-137z" />
<glyph unicode="i" horiz-adv-x="489" d="M156 1305q0 48 26.5 72t65.5 24q88 0 88 -96q0 -47 -24.5 -70t-65.5 -23q-38 0 -64 22t-26 71zM176 0v1010l137 18v-1028h-137z" />
<glyph unicode="j" horiz-adv-x="491" d="M-109 -389q212 79 261 205q26 70 26 233v961l137 18v-987q0 -207 -43 -291q-39 -82 -129.5 -149.5t-208.5 -104.5zM156 1305q0 48 26.5 72t65.5 24q88 0 88 -96q0 -47 -24.5 -70t-65.5 -23q-38 0 -64 22t-26 71z" />
<glyph unicode="k" horiz-adv-x="1030" d="M176 0v1493l137 23v-1006l484 508h176l-371 -387l412 -631h-166l-342 530l-193 -186v-344h-137z" />
<glyph unicode="l" horiz-adv-x="491" d="M176 0v1493l137 23v-1516h-137z" />
<glyph unicode="m" horiz-adv-x="1843" d="M176 0v1010l133 18l4 -160q91 76 209.5 125t225.5 49q202 0 237 -180q93 78 212.5 129t227.5 51q112 0 168 -47.5t70 -146.5q10 -74 10 -246v-602h-137v563q0 187 -14 244q-22 108 -148 108q-110 0 -197.5 -37t-183.5 -108q4 -86 4 -170v-600h-137v563q0 172 -14 244 q-26 108 -148 108q-112 0 -199.5 -37t-185.5 -108v-770h-137z" />
<glyph unicode="n" horiz-adv-x="1187" d="M176 0v1010l133 18l4 -160q90 75 213.5 124.5t231.5 49.5q226 0 250 -194q10 -74 10 -246v-602h-135v563q0 167 -15 244q-11 48 -51.5 78t-107.5 30q-113 0 -206.5 -37.5t-189.5 -107.5v-770h-137z" />
<glyph unicode="o" d="M94 492q0 272 126.5 414.5t369.5 142.5q225 0 336.5 -132t111.5 -385q0 -275 -122.5 -418t-360.5 -143q-222 0 -341.5 134.5t-119.5 386.5zM236 528q0 -129 23 -217.5t69 -136.5t103.5 -68t135.5 -20q75 0 133 21t103 67.5t68.5 128t23.5 195.5q0 86 -8.5 150.5 t-30 119.5t-57 90t-90.5 54.5t-129 19.5q-167 0 -255.5 -107.5t-88.5 -296.5z" />
<glyph unicode="p" horiz-adv-x="1177" d="M176 -504v1510l133 18l4 -147q210 165 410 165q174 0 267 -128t93 -384q0 -280 -127.5 -418.5t-357.5 -138.5q-158 0 -285 45v-522h-137zM313 139q52 -24 132 -37.5t153 -13.5q175 0 258.5 114.5t83.5 315.5q0 85 -13 153.5t-42 125t-81 87.5t-124 31q-97 0 -175.5 -32 t-191.5 -105v-639z" />
<glyph unicode="q" horiz-adv-x="1175" d="M94 492q0 117 26.5 210.5t72.5 156.5t112 104.5t142 60t165 18.5q210 0 394 -59v-1487h-138v629q-148 -152 -354 -152q-198 0 -309 133t-111 386zM238 504q0 -96 19.5 -169.5t49.5 -117t72 -71.5t82 -38t84 -10q95 0 167.5 33t155.5 96v656q-49 19 -123 30t-133 11 q-180 0 -277 -103.5t-97 -316.5z" />
<glyph unicode="r" horiz-adv-x="741" d="M176 0v1010l133 18l4 -166q128 178 322 178q52 0 72 -4l-9 -135q-39 8 -77 8q-168 0 -308 -143v-766h-137z" />
<glyph unicode="s" horiz-adv-x="856" d="M45 57l49 113q62 -36 148 -61t176 -25q124 0 185 53.5t61 128.5q0 60 -37 98t-156 78l-162 54q-113 37 -164 101t-51 159q0 130 95 211.5t294 81.5q150 0 301 -52l-36 -112q-140 51 -293 51q-120 0 -172 -49.5t-52 -120.5q0 -62 37 -95.5t146 -70.5l157 -51 q126 -40 180 -101.5t54 -168.5q0 -60 -21.5 -113.5t-66 -98t-121.5 -70.5t-178 -26q-208 0 -373 86z" />
<glyph unicode="t" horiz-adv-x="714" d="M59 901v98l181 19l8 264l125 18v-282h293v-117h-293v-553q0 -138 35 -196q36 -52 118 -52q81 0 172 27l21 -102q-106 -41 -242 -41q-61 0 -111.5 23t-78.5 63q-29 39 -40 99t-11 165v567h-177z" />
<glyph unicode="u" horiz-adv-x="1187" d="M176 412v598l139 18v-579q0 -165 13 -232q11 -50 56.5 -83.5t117.5 -33.5q113 0 196.5 36.5t182.5 109.5v764l137 18v-1028h-131l-4 147q-184 -174 -422 -174q-120 0 -190.5 52t-84.5 149q-10 74 -10 238z" />
<glyph unicode="v" horiz-adv-x="1024" d="M12 1018h154q266 -644 344 -858q73 190 352 858h148l-437 -1018h-133z" />
<glyph unicode="w" horiz-adv-x="1554" d="M35 1018h149q31 -98 68 -215.5t55.5 -176.5t41.5 -131.5t34 -108.5t23.5 -78.5t19.5 -70.5t14 -57q49 180 279 838h133q101 -284 160.5 -461.5t76.5 -236t39 -140.5q49 201 250 838h144l-328 -1018h-135q-237 687 -281 846q-52 -186 -284 -846h-134z" />
<glyph unicode="x" horiz-adv-x="1026" d="M29 0l393 528l-367 488h174q205 -268 289 -391q6 8 90.5 126t194.5 265h168l-371 -477l404 -539h-177q-232 308 -321 434q-122 -178 -316 -434h-161z" />
<glyph unicode="y" horiz-adv-x="1017" d="M14 1018h152q259 -635 356 -903q160 431 340 903h148l-361 -936q-52 -135 -94.5 -223t-92 -162t-105.5 -117t-126.5 -70.5t-164.5 -39.5l-27 116q71 10 125.5 31.5t96.5 53t79 82t66 107.5t63 140h-41z" />
<glyph unicode="z" horiz-adv-x="958" d="M41 0v88q554 668 670 805h-617l12 125h791v-96q-467 -567 -668 -799h676v-123h-864z" />
<glyph unicode="{" horiz-adv-x="649" d="M59 512v76q109 23 149 81t40 187v279q0 98 21 162t67 101t109 51.5t157 14.5v-88q-31 0 -51 -1t-47.5 -6t-44.5 -14t-36 -26t-29.5 -41.5t-17.5 -61t-7 -83.5v-289q0 -77 -10.5 -129t-35 -85t-54 -51.5t-76.5 -35.5q89 -22 132.5 -87t43.5 -204v-297q0 -73 18.5 -122.5 t53.5 -73.5t73 -33.5t88 -9.5v-86q-92 0 -154.5 14.5t-109 51t-68.5 101t-22 162.5v279q0 137 -43 194.5t-146 69.5z" />
<glyph unicode="|" horiz-adv-x="468" d="M178 -342v1843h113v-1843h-113z" />
<glyph unicode="}" horiz-adv-x="649" d="M47 -272q44 0 71.5 2.5t62 15.5t54 36.5t33 68.5t13.5 110v289q0 101 21.5 162t56.5 88.5t100 50.5q-60 14 -97.5 44t-59 91t-21.5 156v295q0 60 -13 104t-34 69.5t-52.5 41.5t-63 21t-71.5 5v86q92 0 154.5 -14.5t110 -51t69.5 -102t22 -163.5v-279q0 -137 43 -193.5 t146 -70.5v-76q-111 -21 -150 -77.5t-39 -186.5v-281q0 -97 -21 -161.5t-67.5 -101.5t-110 -51.5t-157.5 -14.5v88z" />
<glyph unicode="~" horiz-adv-x="1433" d="M180 537q85 114 159.5 161t158.5 47q47 0 101.5 -20.5t148.5 -75.5q117 -71 198 -71q66 0 117 37.5t111 129.5l77 -55q-71 -114 -140.5 -167.5t-166.5 -53.5q-98 0 -242 84q-146 84 -215 84q-62 0 -116.5 -38t-114.5 -124z" />
<glyph unicode="&#xa1;" horiz-adv-x="585" d="M178 897q0 53 30.5 81t74.5 28q43 0 71.5 -26.5t28.5 -82.5q0 -50 -29.5 -76t-74.5 -26q-41 0 -71 25t-30 77zM201 -395q0 59 18 968h115q20 -909 20 -968h-153z" />
<glyph unicode="&#xa2;" horiz-adv-x="1077" d="M137 504q0 248 112 382.5t310 153.5v203h84v-199q158 -2 281 -55l-39 -123q-126 55 -242 58v-811q72 4 135 27.5t137 70.5l48 -98q-81 -53 -156.5 -81t-163.5 -34v-205h-84v201q-200 4 -311 139t-111 371zM274 516q0 -103 21 -179t60.5 -121.5t89.5 -69.5t114 -31v805 q-141 -22 -213 -125.5t-72 -278.5z" />
<glyph unicode="&#xa3;" horiz-adv-x="1153" d="M113 0v96q105 50 176 119.5t98 128.5t27 111q0 45 -15 92h-239v96h207q-8 19 -28 65t-30 71t-23 64t-18.5 75.5t-5.5 74.5q0 166 107.5 260.5t306.5 94.5q184 0 344 -56l-41 -125q-144 54 -283 54q-145 0 -215.5 -65.5t-70.5 -182.5q0 -39 11 -85.5t20 -72.5t35.5 -90 t33.5 -82h383v-96h-356q14 -49 14 -101q0 -191 -240 -325q162 4 764 4v-125h-962z" />
<glyph unicode="&#xa4;" horiz-adv-x="1062" d="M80 291l123 123q-88 115 -88 264q0 145 88 260l-123 123l76 76l120 -123q113 90 259 90q152 0 256 -88l122 121l72 -76l-119 -121q88 -112 88 -262t-88 -262l121 -125l-72 -72l-120 119q-115 -86 -260 -86q-149 0 -261 86l-118 -121zM221 682q0 -145 89 -236.5t225 -91.5 q135 0 223 91.5t88 232.5q0 142 -87.5 232.5t-223.5 90.5q-134 0 -224 -91t-90 -228z" />
<glyph unicode="&#xa5;" horiz-adv-x="1290" d="M59 1325h164q75 -118 156.5 -246t113 -178t67 -106.5t51 -83.5t32.5 -58q55 95 335 528q19 30 30 46.5t29 45t34 52.5h162l-389 -598h225v-86h-283l-77 -121v-47h360v-86h-360v-387h-138v387h-362v86h362v47l-77 121h-285v86h231z" />
<glyph unicode="&#xa6;" horiz-adv-x="468" d="M178 -264v688h115v-688h-115zM178 696v688h115v-688h-115z" />
<glyph unicode="&#xa7;" horiz-adv-x="1021" d="M104 -119l64 103q167 -131 338 -131q96 0 156.5 45t60.5 125q0 29 -7 53t-27 47t-40.5 41t-62.5 43t-76.5 43.5t-99.5 52.5q-31 16 -48 25q-151 79 -204.5 151t-53.5 160q0 97 62.5 161.5t155.5 90.5q-125 102 -125 239q0 35 10 70.5t35 73t62 66t97 47t134 18.5 q181 0 329 -96l-51 -105q-79 44 -144 68t-139 24q-54 0 -94.5 -16t-61 -41t-30.5 -50t-10 -50q0 -79 56.5 -132t223.5 -141q193 -102 257.5 -171t64.5 -171q0 -176 -199 -258q69 -57 98 -109.5t29 -127.5q0 -54 -22.5 -104.5t-65.5 -92.5t-114 -67t-160 -25q-224 0 -398 141 zM229 666q0 -105 148 -195q34 -20 77 -43.5t100.5 -55.5t96.5 -53q67 24 113.5 70t46.5 113q0 60 -39.5 105t-126.5 93q-32 17 -239 138q-177 -39 -177 -172z" />
<glyph unicode="&#xa8;" horiz-adv-x="411" d="M-53 1341q0 49 25.5 73t66.5 24q90 0 90 -97q0 -46 -25.5 -70t-66.5 -24q-40 0 -65 23t-25 71zM283 1341q0 49 26 73t68 24q88 0 88 -97q0 -46 -25.5 -70t-66.5 -24q-39 0 -64.5 23t-25.5 71z" />
<glyph unicode="&#xa9;" horiz-adv-x="1662" d="M111 690q0 151 54.5 284.5t149.5 229.5t228.5 151.5t285.5 55.5q154 0 289 -55.5t230.5 -151t150.5 -229t55 -285.5q0 -151 -54.5 -284t-149.5 -228t-230 -150t-289 -55q-153 0 -287.5 55.5t-229 150.5t-149 228t-54.5 283zM174 690q0 -111 31 -212t90 -182t139 -141.5 t182 -93t215 -32.5q189 0 340.5 86.5t235.5 237.5t84 337q0 188 -84.5 340t-236.5 239t-341 87q-186 0 -336.5 -87.5t-234.5 -240t-84 -338.5zM430 680q0 235 115 355t317 120q152 0 252 -49l-33 -100q-105 45 -223 45q-155 0 -233 -93.5t-78 -267.5q0 -100 22.5 -171 t64 -110t92.5 -56t116 -17q75 0 132.5 20.5t131.5 65.5l43 -80q-82 -56 -159 -81t-177 -25q-182 0 -282.5 117t-100.5 327z" />
<glyph unicode="&#xaa;" horiz-adv-x="716" d="M68 676q0 129 129 160q103 27 297 30v52q0 70 -21 100q-25 39 -106 39q-109 0 -234 -45l-20 84q130 53 280 53q76 0 124.5 -20t70.5 -72q20 -44 20 -152v-416h-102l-6 80q-78 -94 -215 -94q-102 0 -159.5 61t-57.5 140zM180 676q0 -47 32.5 -82t102.5 -35q106 0 179 80 v152q-134 -2 -238 -25q-76 -19 -76 -90z" />
<glyph unicode="&#xab;" horiz-adv-x="1032" d="M84 514l344 381h141l-327 -377l327 -387h-141zM451 514l342 381h139l-324 -377l326 -387h-141z" />
<glyph unicode="&#xac;" horiz-adv-x="1433" d="M168 551v106h1065v-587h-105v481h-960z" />
<glyph unicode="&#xad;" horiz-adv-x="622" d="M76 459v129h471v-129h-471z" />
<glyph unicode="&#xae;" horiz-adv-x="1662" d="M111 690q0 151 54.5 284.5t149.5 229.5t228.5 151.5t285.5 55.5q154 0 289 -55.5t230.5 -151t150.5 -229t55 -285.5q0 -151 -54.5 -284t-149.5 -228t-230 -150t-289 -55q-153 0 -287.5 55.5t-229 150.5t-149 228t-54.5 283zM174 690q0 -111 31 -212t90 -182t139 -141.5 t182 -93t215 -32.5q189 0 340.5 86.5t235.5 237.5t84 337q0 188 -84.5 340t-236.5 239t-341 87q-186 0 -336.5 -87.5t-234.5 -240t-84 -338.5zM559 276v859h219q143 0 213 -19q154 -45 154 -213q0 -88 -48.5 -149.5t-144.5 -87.5l254 -390h-116l-238 373q-18 -2 -55 -2h-138 v-371h-100zM659 733h132q111 0 172 27q75 38 75 137q0 55 -21 89t-71 48q-50 15 -172 15h-115v-316z" />
<glyph unicode="&#xaf;" horiz-adv-x="411" d="M-74 1243v117h559v-117h-559z" />
<glyph unicode="&#xb0;" horiz-adv-x="602" d="M51 1147q0 118 71 190t179 72q120 0 185 -71t65 -179q0 -118 -73 -189t-181 -71q-107 0 -176.5 73.5t-69.5 174.5zM125 1153q0 -79 49 -131.5t125 -52.5q80 0 130 52t50 138q0 69 -43.5 124.5t-136.5 55.5q-83 0 -128.5 -54.5t-45.5 -131.5z" />
<glyph unicode="&#xb1;" horiz-adv-x="1433" d="M184 0v104h1065v-104h-1065zM184 727v104h478v463h108v-463h479v-104h-479v-469h-106v469h-480z" />
<glyph unicode="&#xb2;" horiz-adv-x="782" d="M70 868v76q202 146 360 301q115 108 115 223q0 66 -39 108t-125 42q-115 0 -238 -68l-34 82q143 86 288 86q133 0 200 -61.5t67 -173.5q0 -157 -166 -309q-84 -79 -265 -209q117 2 455 2v-99h-618z" />
<glyph unicode="&#xb3;" horiz-adv-x="782" d="M92 879l25 96q30 -11 84.5 -19t89.5 -8q137 0 196.5 45t59.5 127q0 62 -43.5 97.5t-155.5 35.5q-65 0 -92 -4v90q146 7 206 49.5t60 112.5q0 60 -37.5 88.5t-115.5 28.5q-111 0 -222 -57l-30 81q139 76 268 76q252 0 252 -205q0 -66 -46 -119.5t-128 -76.5q99 -7 153 -58 t54 -135q0 -276 -369 -276q-50 0 -114.5 10.5t-94.5 20.5z" />
<glyph unicode="&#xb4;" horiz-adv-x="411" d="M-8 1188l250 305h188l-297 -305h-141z" />
<glyph unicode="&#xb5;" horiz-adv-x="1255" d="M207 -414v1422l139 18v-575q0 -171 12 -230q11 -49 56.5 -82t117.5 -33q113 0 199 36t180 106v760l138 18v-1026h-131l-7 150q-73 -79 -171.5 -122.5t-200.5 -43.5q-155 0 -201 86q4 -158 4 -484h-135z" />
<glyph unicode="&#xb6;" horiz-adv-x="1132" d="M117 940q0 102 29 181.5t91 139t165.5 91.5t244.5 32h307v-1601h-84v1526h-235v-1526h-80v735q-106 0 -190.5 33t-138 91t-81.5 134t-28 164z" />
<glyph unicode="&#xb7;" horiz-adv-x="380" d="M88 547q0 53 30.5 79.5t74.5 26.5q43 0 71.5 -24.5t28.5 -81.5q0 -50 -29 -76.5t-76 -26.5q-41 0 -70.5 25.5t-29.5 77.5z" />
<glyph unicode="&#xb8;" horiz-adv-x="411" d="M23 -451l30 91q55 -17 109 -17q104 0 104 82q0 45 -26.5 65.5t-81.5 20.5q-45 0 -72 -4l92 233h98l-57 -141q48 -3 82.5 -18.5t52.5 -40t25.5 -51t7.5 -56.5q0 -82 -55.5 -134t-169.5 -52q-32 0 -76.5 7t-62.5 15z" />
<glyph unicode="&#xb9;" horiz-adv-x="782" d="M152 1556q113 70 233 156h100v-844h-112v719q-22 -14 -174 -106z" />
<glyph unicode="&#xba;" horiz-adv-x="755" d="M61 799q0 172 84.5 261t247.5 89q151 0 226 -82.5t75 -241.5q0 -173 -82.5 -263.5t-240.5 -90.5q-150 0 -230 84.5t-80 243.5zM178 823q0 -78 14 -130.5t41.5 -80.5t61.5 -39.5t82 -11.5q95 0 145.5 54.5t50.5 189.5q0 131 -40 193.5t-148 62.5q-101 0 -154 -63t-53 -175 z" />
<glyph unicode="&#xbb;" horiz-adv-x="1032" d="M96 895h144l344 -383l-344 -381h-142l326 377zM463 895h141l342 -383l-342 -381h-139l323 377z" />
<glyph unicode="&#xbc;" horiz-adv-x="1667" d="M145 1178q179 116 234 155h100v-844h-112v719q-54 -35 -174 -106zM442 0l652 1321h94l-649 -1321h-97zM883 211v70l405 563h115v-539h133v-94h-133v-223h-113v223h-407zM995 305h295q0 318 2 414q-83 -129 -297 -414z" />
<glyph unicode="&#xbd;" horiz-adv-x="1667" d="M125 1178q168 109 233 155h101v-844h-113v719q-54 -35 -174 -106zM406 0l651 1321h94l-649 -1321h-96zM971 0v76q202 146 360 301q115 108 115 223q0 66 -39 108t-125 42q-115 0 -238 -68l-34 82q143 86 288 86q133 0 200 -61.5t67 -174.5q0 -157 -166 -309 q-87 -82 -264 -209q117 2 454 2v-98h-618z" />
<glyph unicode="&#xbe;" horiz-adv-x="1667" d="M123 500l24 96q30 -11 85 -19t90 -8q137 0 196.5 45t59.5 127q0 62 -43.5 97.5t-155.5 35.5q-65 0 -92 -4v91q147 7 206.5 49t59.5 112q0 117 -154 117q-110 0 -221 -57l-31 82q137 75 269 75q252 0 252 -204q0 -66 -46.5 -120t-127.5 -77q99 -7 152.5 -58t53.5 -135 q0 -276 -368 -276q-50 0 -114.5 10.5t-94.5 20.5zM526 0l652 1321h94l-649 -1321h-97zM954 211v70l406 563h115v-539h133v-94h-133v-223h-113v223h-408zM1067 305h295q0 318 2 414q-83 -129 -297 -414z" />
<glyph unicode="&#xbf;" horiz-adv-x="897" d="M139 -141q0 115 40 185.5t161 174.5q60 52 84 77.5t38.5 60t14.5 83.5q0 72 -12 125l121 13q18 -92 18 -144q0 -80 -27 -133t-112 -123q-97 -80 -139.5 -148.5t-42.5 -146.5q0 -89 56 -138.5t171 -49.5q67 0 145 17t136 44l32 -108q-152 -76 -336 -76q-176 0 -262 75 t-86 212zM418 897q0 53 29 81t73 28t73.5 -26.5t29.5 -82.5q0 -50 -29.5 -76t-75.5 -26q-41 0 -70.5 25t-29.5 77z" />
<glyph unicode="&#xc0;" horiz-adv-x="1280" d="M8 0l561 1384h156l547 -1384h-154l-168 424h-618l-174 -424h-150zM283 1782h215l346 -291h-160zM381 549h524q-203 525 -258 676q-93 -255 -266 -676z" />
<glyph unicode="&#xc1;" horiz-adv-x="1280" d="M8 0l561 1384h156l547 -1384h-154l-168 424h-618l-174 -424h-150zM381 549h524q-203 525 -258 676q-93 -255 -266 -676zM461 1491l348 291h213l-397 -291h-164z" />
<glyph unicode="&#xc2;" horiz-adv-x="1280" d="M8 0l561 1384h156l547 -1384h-154l-168 424h-618l-174 -424h-150zM309 1491l256 254h160l254 -254h-148l-188 156l-190 -156h-144zM381 549h524q-203 525 -258 676q-93 -255 -266 -676z" />
<glyph unicode="&#xc3;" horiz-adv-x="1280" d="M6 0l561 1384h156l547 -1384h-154l-168 424h-618l-174 -424h-150zM324 1491q20 102 68 159.5t112 57.5q53 0 151 -49q79 -39 123 -39q30 0 47.5 21t36.5 79h103q-18 -108 -67 -166.5t-116 -58.5q-59 0 -153 47q-85 43 -119 43q-28 0 -45.5 -20t-36.5 -74h-104zM379 549 h524q-203 525 -258 676q-93 -255 -266 -676z" />
<glyph unicode="&#xc4;" horiz-adv-x="1280" d="M8 0l561 1384h156l547 -1384h-154l-168 424h-618l-174 -424h-150zM369 1624q0 48 26.5 72t67.5 24q90 0 90 -96q0 -46 -25.5 -70t-68.5 -24q-39 0 -64.5 23t-25.5 71zM381 549h524q-203 525 -258 676q-93 -255 -266 -676zM731 1624q0 48 26.5 72t67.5 24q90 0 90 -96 q0 -46 -25.5 -70t-66.5 -24q-40 0 -66 23t-26 71z" />
<glyph unicode="&#xc5;" horiz-adv-x="1280" d="M8 0l561 1384h156l547 -1384h-154l-168 424h-618l-174 -424h-150zM381 549h524q-203 525 -258 676q-93 -255 -266 -676zM469 1630q0 77 51 126.5t127 49.5q82 0 129 -46.5t47 -125.5q0 -76 -50 -130t-128 -54q-77 0 -126.5 52t-49.5 128zM541 1630q0 -49 28 -80.5 t80 -31.5q50 0 76.5 31.5t26.5 82.5t-29 81t-78 30q-47 0 -75.5 -31.5t-28.5 -81.5z" />
<glyph unicode="&#xc6;" horiz-adv-x="1951" d="M2 0l911 1384h926v-133h-706v-467h636v-131h-636v-522h731v-131h-875v422h-534l-279 -422h-174zM526 553h463v698q-95 -153 -463 -698z" />
<glyph unicode="&#xc7;" horiz-adv-x="1277" d="M104 657q0 373 169.5 564.5t490.5 191.5q225 0 385 -72l-43 -120q-162 65 -352 65q-87 0 -160 -18.5t-138.5 -63t-110.5 -114t-71 -177t-26 -245.5q0 -286 130.5 -427t358.5 -141q116 0 216 39t208 115l68 -100q-216 -175 -496 -183l-41 -100q52 -3 89 -19t56 -42t27 -53 t8 -58q0 -86 -58.5 -140.5t-180.5 -54.5q-33 0 -81 7.5t-67 15.5l33 96q62 -18 115 -18q112 0 112 86q0 90 -116 90q-49 0 -76 -4l78 198q-241 25 -384 203.5t-143 478.5z" />
<glyph unicode="&#xc8;" horiz-adv-x="1171" d="M209 0v1384h833v-133h-692v-467h643v-131h-643v-522h731v-131h-872zM240 1782h215l346 -291h-160z" />
<glyph unicode="&#xc9;" horiz-adv-x="1171" d="M209 0v1384h833v-133h-692v-467h643v-131h-643v-522h731v-131h-872zM485 1470l349 291h213l-398 -291h-164z" />
<glyph unicode="&#xca;" horiz-adv-x="1171" d="M209 0v1384h833v-133h-692v-467h643v-131h-643v-522h731v-131h-872zM299 1491l256 254h160l254 -254h-148l-188 156l-191 -156h-143z" />
<glyph unicode="&#xcb;" horiz-adv-x="1171" d="M209 0v1384h833v-133h-692v-467h643v-131h-643v-522h731v-131h-872zM365 1624q0 48 26.5 72t67.5 24q90 0 90 -96q0 -46 -25.5 -70t-68.5 -24q-39 0 -64.5 23t-25.5 71zM727 1624q0 48 26.5 72t67.5 24q90 0 90 -96q0 -46 -25.5 -70t-66.5 -24q-40 0 -66 23t-26 71z" />
<glyph unicode="&#xcc;" horiz-adv-x="559" d="M-92 1782h215l346 -291h-160zM209 0v1384h141v-1384h-141z" />
<glyph unicode="&#xcd;" horiz-adv-x="559" d="M111 1470l348 291h213l-398 -291h-163zM209 0v1384h141v-1384h-141z" />
<glyph unicode="&#xce;" horiz-adv-x="559" d="M-59 1491l256 254h159l254 -254h-147l-189 156l-190 -156h-143zM209 0v1384h141v-1384h-141z" />
<glyph unicode="&#xcf;" horiz-adv-x="559" d="M0 1624q0 48 26.5 72t67.5 24q90 0 90 -96q0 -46 -25.5 -70t-68.5 -24q-39 0 -64.5 23t-25.5 71zM209 0v1384h141v-1384h-141zM362 1624q0 48 27 72t68 24q90 0 90 -96q0 -46 -25.5 -70t-66.5 -24q-40 0 -66.5 23t-26.5 71z" />
<glyph unicode="&#xd0;" horiz-adv-x="1415" d="M35 657v121h174v606h264q310 0 455 -51q69 -24 125 -56.5t105 -82.5t82 -113t52 -150t19 -192q0 -278 -101 -448.5t-323 -239.5q-167 -51 -461 -51h-217v657h-174zM350 131h129q222 0 344 39q182 58 262 197t80 362q0 330 -237 455q-128 67 -412 67h-166v-473h383v-121 h-383v-526z" />
<glyph unicode="&#xd1;" horiz-adv-x="1454" d="M209 0v1384h162q426 -629 547.5 -814t193.5 -308q-6 289 -6 1122h139v-1384h-137q-709 1074 -762 1159q2 -195 2 -1159h-139zM403 1491q20 101 68.5 159t112.5 58q53 0 151 -49q79 -39 123 -39q30 0 47.5 21t36.5 79h102q-18 -109 -66.5 -167t-115.5 -58q-59 0 -153 47 q-85 43 -119 43q-28 0 -45.5 -20t-36.5 -74h-105z" />
<glyph unicode="&#xd2;" horiz-adv-x="1480" d="M104 672q0 358 170.5 549.5t481.5 191.5q302 0 461 -174.5t159 -505.5q0 -365 -169.5 -563.5t-473.5 -198.5q-298 0 -463.5 188.5t-165.5 512.5zM248 700q0 -307 132 -454.5t363 -147.5q227 0 357.5 157t130.5 447q0 106 -14.5 192t-49.5 161t-90 125.5t-139.5 79 t-194.5 28.5q-235 0 -365 -153.5t-130 -434.5zM403 1782h215l347 -291h-160z" />
<glyph unicode="&#xd3;" horiz-adv-x="1480" d="M104 672q0 358 170.5 549.5t481.5 191.5q302 0 461 -174.5t159 -505.5q0 -365 -169.5 -563.5t-473.5 -198.5q-298 0 -463.5 188.5t-165.5 512.5zM248 700q0 -307 132 -454.5t363 -147.5q227 0 357.5 157t130.5 447q0 106 -14.5 192t-49.5 161t-90 125.5t-139.5 79 t-194.5 28.5q-235 0 -365 -153.5t-130 -434.5zM561 1483l348 291h213l-397 -291h-164z" />
<glyph unicode="&#xd4;" horiz-adv-x="1480" d="M104 672q0 358 170.5 549.5t481.5 191.5q302 0 461 -174.5t159 -505.5q0 -365 -169.5 -563.5t-473.5 -198.5q-298 0 -463.5 188.5t-165.5 512.5zM248 700q0 -307 132 -454.5t363 -147.5q227 0 357.5 157t130.5 447q0 106 -14.5 192t-49.5 161t-90 125.5t-139.5 79 t-194.5 28.5q-235 0 -365 -153.5t-130 -434.5zM416 1491l256 254h159l254 -254h-147l-188 156l-191 -156h-143z" />
<glyph unicode="&#xd5;" horiz-adv-x="1480" d="M104 672q0 358 170.5 549.5t481.5 191.5q302 0 461 -174.5t159 -505.5q0 -365 -169.5 -563.5t-473.5 -198.5q-298 0 -463.5 188.5t-165.5 512.5zM248 700q0 -307 132 -454.5t363 -147.5q227 0 357.5 157t130.5 447q0 106 -14.5 192t-49.5 161t-90 125.5t-139.5 79 t-194.5 28.5q-235 0 -365 -153.5t-130 -434.5zM418 1491q20 102 68 159.5t112 57.5q54 0 152 -49q79 -39 122 -39q30 0 47.5 21t36.5 79h103q-18 -109 -66.5 -167t-115.5 -58q-60 0 -154 47q-85 43 -119 43q-28 0 -45.5 -20t-36.5 -74h-104z" />
<glyph unicode="&#xd6;" horiz-adv-x="1480" d="M104 672q0 358 170.5 549.5t481.5 191.5q302 0 461 -174.5t159 -505.5q0 -365 -169.5 -563.5t-473.5 -198.5q-298 0 -463.5 188.5t-165.5 512.5zM248 700q0 -307 132 -454.5t363 -147.5q227 0 357.5 157t130.5 447q0 106 -14.5 192t-49.5 161t-90 125.5t-139.5 79 t-194.5 28.5q-235 0 -365 -153.5t-130 -434.5zM473 1624q0 48 26.5 72t67.5 24q90 0 90 -96q0 -46 -25.5 -70t-68.5 -24q-39 0 -64.5 23t-25.5 71zM836 1624q0 48 26.5 72t67.5 24q90 0 90 -96q0 -46 -25.5 -70t-66.5 -24q-40 0 -66 23t-26 71z" />
<glyph unicode="&#xd7;" horiz-adv-x="1433" d="M281 969l73 78l361 -365l366 365l74 -78l-364 -365l358 -354l-76 -80l-360 356l-357 -358l-73 76l358 360z" />
<glyph unicode="&#xd8;" horiz-adv-x="1480" d="M104 672q0 358 170.5 549.5t481.5 191.5q201 0 346 -82l115 170l83 -53l-118 -174q194 -173 194 -541q0 -359 -170.5 -560.5t-472.5 -201.5q-217 0 -364 101l-115 -168l-84 57l119 176q-185 188 -185 535zM248 700q0 -291 123 -442l653 961q-112 67 -281 67 q-237 0 -366 -151.5t-129 -434.5zM444 186q120 -86 299 -86q227 0 357.5 156t130.5 446q0 306 -131 451z" />
<glyph unicode="&#xd9;" horiz-adv-x="1429" d="M197 569v815h141v-813q0 -206 31 -288q74 -185 348 -185q254 0 334 168q41 87 41 295v823h139v-817q0 -148 -13 -233.5t-49 -149.5q-56 -101 -174.5 -157t-285.5 -56q-166 0 -288.5 57.5t-174.5 174.5q-49 108 -49 366zM332 1782h215l346 -291h-160z" />
<glyph unicode="&#xda;" horiz-adv-x="1429" d="M197 569v815h141v-813q0 -206 31 -288q74 -185 348 -185q254 0 334 168q41 87 41 295v823h139v-817q0 -148 -13 -233.5t-49 -149.5q-56 -101 -174.5 -157t-285.5 -56q-166 0 -288.5 57.5t-174.5 174.5q-49 108 -49 366zM559 1470l348 291h213l-397 -291h-164z" />
<glyph unicode="&#xdb;" horiz-adv-x="1429" d="M197 569v815h141v-813q0 -206 31 -288q74 -185 348 -185q254 0 334 168q41 87 41 295v823h139v-817q0 -148 -13 -233.5t-49 -149.5q-56 -101 -174.5 -157t-285.5 -56q-166 0 -288.5 57.5t-174.5 174.5q-49 108 -49 366zM379 1491l256 254h160l254 -254h-148l-188 156 l-191 -156h-143z" />
<glyph unicode="&#xdc;" horiz-adv-x="1429" d="M197 569v815h141v-813q0 -206 31 -288q74 -185 348 -185q254 0 334 168q41 87 41 295v823h139v-817q0 -148 -13 -233.5t-49 -149.5q-56 -101 -174.5 -157t-285.5 -56q-166 0 -288.5 57.5t-174.5 174.5q-49 108 -49 366zM440 1624q0 48 27 72t68 24q90 0 90 -96 q0 -46 -26 -70t-69 -24q-39 0 -64.5 23t-25.5 71zM803 1624q0 48 26.5 72t67.5 24q90 0 90 -96q0 -46 -25.5 -70t-66.5 -24q-40 0 -66 23t-26 71z" />
<glyph unicode="&#xdd;" horiz-adv-x="1220" d="M10 1384h166q376 -598 434 -702q48 84 439 702h161l-534 -837v-547h-141v547zM455 1470l348 291h213l-398 -291h-163z" />
<glyph unicode="&#xde;" horiz-adv-x="1198" d="M209 0v1384h141v-262h180q218 0 306 -24q268 -70 268 -357q0 -165 -76 -263.5t-213 -133.5q-107 -29 -317 -29h-148v-315h-141zM350 436h144q191 0 278 27q89 28 136.5 91.5t47.5 178.5q0 180 -161 234q-82 26 -265 26h-180v-557z" />
<glyph unicode="&#xdf;" horiz-adv-x="1114" d="M176 0v938q0 268 76 383q119 178 352 178q71 0 128.5 -17t93 -44t59.5 -63t33.5 -71.5t9.5 -72.5q0 -83 -38.5 -149.5t-111.5 -143.5q-57 -59 -77.5 -91.5t-20.5 -58.5q0 -24 15.5 -42.5t49.5 -47.5q110 -91 185 -159q108 -96 108 -242q0 -153 -98.5 -239.5t-245.5 -86.5 q-156 0 -295 78l58 115q46 -32 107 -51t118 -19q98 0 155.5 49.5t57.5 143.5q0 100 -78 168q-32 28 -100.5 85t-100.5 85q-79 70 -79 133q0 73 81 164q84 89 125 152t41 132q0 47 -15.5 84.5t-59 64.5t-111.5 27q-150 0 -221 -104q-64 -90 -64 -309v-969h-137z" />
<glyph unicode="&#xe0;" horiz-adv-x="1071" d="M94 295q0 197 201 250q150 38 469 49v92q0 124 -35 174q-45 68 -176 68q-170 0 -365 -72l-26 102q224 91 418 91q229 0 292 -148q29 -71 29 -235v-666h-125l-6 131q-72 -77 -154 -115.5t-192 -38.5q-154 0 -242 96t-88 222zM231 291q0 -34 11.5 -67.5t36.5 -65t71.5 -51 t108.5 -19.5q166 0 305 139v265q-267 -10 -404 -46q-129 -33 -129 -155zM256 1493h188l248 -305h-143z" />
<glyph unicode="&#xe1;" horiz-adv-x="1071" d="M94 295q0 197 201 250q150 38 469 49v92q0 124 -35 174q-45 68 -176 68q-170 0 -365 -72l-26 102q224 91 418 91q229 0 292 -148q29 -71 29 -235v-666h-125l-6 131q-72 -77 -154 -115.5t-192 -38.5q-154 0 -242 96t-88 222zM231 291q0 -34 11.5 -67.5t36.5 -65t71.5 -51 t108.5 -19.5q166 0 305 139v265q-267 -10 -404 -46q-129 -33 -129 -155zM391 1188l250 305h188l-297 -305h-141z" />
<glyph unicode="&#xe2;" horiz-adv-x="1071" d="M94 295q0 197 201 250q150 38 469 49v92q0 124 -35 174q-45 68 -176 68q-170 0 -365 -72l-26 102q224 91 418 91q229 0 292 -148q29 -71 29 -235v-666h-125l-6 131q-72 -77 -154 -115.5t-192 -38.5q-154 0 -242 96t-88 222zM231 291q0 -34 11.5 -67.5t36.5 -65t71.5 -51 t108.5 -19.5q166 0 305 139v265q-267 -10 -404 -46q-129 -33 -129 -155zM238 1188l239 303h133l236 -303h-137l-168 192l-168 -192h-135z" />
<glyph unicode="&#xe3;" horiz-adv-x="1071" d="M94 295q0 197 201 250q150 38 469 49v92q0 124 -35 174q-45 68 -176 68q-170 0 -365 -72l-26 102q224 91 418 91q229 0 292 -148q29 -71 29 -235v-666h-125l-6 131q-72 -77 -154 -115.5t-192 -38.5q-154 0 -242 96t-88 222zM227 1214q18 101 68 159.5t111 58.5 q48 0 143 -50q74 -39 117 -39q28 0 44 21t35 80h101q-17 -107 -65.5 -166t-110.5 -59q-54 0 -148 47q-86 45 -112 45t-43.5 -21t-36.5 -76h-103zM231 291q0 -34 11.5 -67.5t36.5 -65t71.5 -51t108.5 -19.5q166 0 305 139v265q-267 -10 -404 -46q-129 -33 -129 -155z" />
<glyph unicode="&#xe4;" horiz-adv-x="1071" d="M94 295q0 197 201 250q150 38 469 49v92q0 124 -35 174q-45 68 -176 68q-170 0 -365 -72l-26 102q224 91 418 91q229 0 292 -148q29 -71 29 -235v-666h-125l-6 131q-72 -77 -154 -115.5t-192 -38.5q-154 0 -242 96t-88 222zM231 291q0 -34 11.5 -67.5t36.5 -65t71.5 -51 t108.5 -19.5q166 0 305 139v265q-267 -10 -404 -46q-129 -33 -129 -155zM295 1341q0 49 25.5 73t66.5 24q90 0 90 -97q0 -46 -25.5 -70t-66.5 -24q-40 0 -65 23t-25 71zM631 1341q0 49 26 73t68 24q88 0 88 -97q0 -46 -25.5 -70t-66.5 -24q-39 0 -64.5 23t-25.5 71z" />
<glyph unicode="&#xe5;" horiz-adv-x="1071" d="M94 295q0 197 201 250q150 38 469 49v92q0 124 -35 174q-45 68 -176 68q-170 0 -365 -72l-26 102q224 91 418 91q229 0 292 -148q29 -71 29 -235v-666h-125l-6 131q-72 -77 -154 -115.5t-192 -38.5q-154 0 -242 96t-88 222zM231 291q0 -34 11.5 -67.5t36.5 -65t71.5 -51 t108.5 -19.5q166 0 305 139v265q-267 -10 -404 -46q-129 -33 -129 -155zM358 1341q0 81 53 132t132 51q83 0 131.5 -48t48.5 -130q0 -77 -51 -132t-131 -55q-79 0 -131 52.5t-52 129.5zM432 1341q0 -52 29 -84t84 -32q50 0 78 33t28 85q0 54 -30 85.5t-80 31.5t-79.5 -33 t-29.5 -86z" />
<glyph unicode="&#xe6;" horiz-adv-x="1773" d="M106 289q0 195 213 250q160 44 472 47v78q0 142 -41 196q-49 68 -175 68q-179 0 -374 -72l-25 102q234 91 430 91q122 0 195.5 -52.5t87.5 -173.5q45 111 150 168.5t233 57.5q99 0 173.5 -26t118.5 -68.5t71 -106t36.5 -128.5t9.5 -147q0 -46 -4 -92h-753q0 -48 4 -88 q6 -44 19 -84t40.5 -82t65 -72t97 -49.5t132.5 -19.5q102 0 175 24.5t161 79.5l49 -92q-106 -69 -197 -99t-215 -30q-133 0 -230 50.5t-151 142.5q-99 -102 -201 -143.5t-229 -41.5q-156 0 -247 90.5t-91 221.5zM244 283q0 -37 12.5 -70.5t38.5 -63.5t74.5 -47.5 t113.5 -17.5q60 0 113.5 14.5t97 42.5t71.5 52t62 59q-32 84 -41 235q-280 -11 -411 -49q-71 -21 -101 -59t-30 -96zM928 590h620q2 16 2 45q0 146 -68 221.5t-214 75.5q-140 0 -233.5 -83.5t-106.5 -258.5z" />
<glyph unicode="&#xe7;" horiz-adv-x="980" d="M94 492q0 277 133.5 417t370.5 140q147 0 297 -58l-39 -117q-125 54 -262 54q-180 0 -271.5 -109.5t-91.5 -314.5q0 -416 347 -416q87 0 156.5 24t150.5 76l49 -94q-91 -58 -171 -87.5t-179 -33.5l-37 -94q48 -3 82.5 -18.5t52.5 -40t25.5 -51t7.5 -56.5 q0 -81 -55.5 -133.5t-170.5 -52.5q-32 0 -76.5 7t-62.5 15l31 91q55 -17 108 -17q105 0 105 82q0 86 -109 86q-44 0 -71 -4l73 186q-189 17 -291 152.5t-102 366.5z" />
<glyph unicode="&#xe8;" horiz-adv-x="1075" d="M94 496q0 139 37.5 246.5t103.5 173.5t151.5 99.5t186.5 33.5q98 0 171.5 -25.5t118.5 -68t72.5 -105.5t37.5 -128.5t10 -146.5q0 -76 -4 -96h-750q0 -36 4 -76q5 -46 17.5 -87.5t39 -84t64 -73.5t97 -50.5t133.5 -19.5q100 0 173.5 25.5t164.5 79.5l47 -91 q-105 -70 -196.5 -100.5t-209.5 -30.5q-155 0 -261.5 67t-157 183.5t-50.5 274.5zM233 590h617q2 12 2 37q0 157 -69 231t-212 74q-65 0 -122 -19t-104.5 -58.5t-77 -107t-34.5 -157.5zM276 1493h189l248 -305h-144z" />
<glyph unicode="&#xe9;" horiz-adv-x="1075" d="M94 496q0 139 37.5 246.5t103.5 173.5t151.5 99.5t186.5 33.5q98 0 171.5 -25.5t118.5 -68t72.5 -105.5t37.5 -128.5t10 -146.5q0 -76 -4 -96h-750q0 -36 4 -76q5 -46 17.5 -87.5t39 -84t64 -73.5t97 -50.5t133.5 -19.5q100 0 173.5 25.5t164.5 79.5l47 -91 q-105 -70 -196.5 -100.5t-209.5 -30.5q-155 0 -261.5 67t-157 183.5t-50.5 274.5zM233 590h617q2 12 2 37q0 157 -69 231t-212 74q-65 0 -122 -19t-104.5 -58.5t-77 -107t-34.5 -157.5zM446 1188l250 305h189l-297 -305h-142z" />
<glyph unicode="&#xea;" horiz-adv-x="1075" d="M94 496q0 139 37.5 246.5t103.5 173.5t151.5 99.5t186.5 33.5q98 0 171.5 -25.5t118.5 -68t72.5 -105.5t37.5 -128.5t10 -146.5q0 -76 -4 -96h-750q0 -36 4 -76q5 -46 17.5 -87.5t39 -84t64 -73.5t97 -50.5t133.5 -19.5q100 0 173.5 25.5t164.5 79.5l47 -91 q-105 -70 -196.5 -100.5t-209.5 -30.5q-155 0 -261.5 67t-157 183.5t-50.5 274.5zM233 590h617q2 12 2 37q0 157 -69 231t-212 74q-65 0 -122 -19t-104.5 -58.5t-77 -107t-34.5 -157.5zM276 1188l240 303h133l236 -303h-137l-168 192l-168 -192h-136z" />
<glyph unicode="&#xeb;" horiz-adv-x="1075" d="M94 496q0 139 37.5 246.5t103.5 173.5t151.5 99.5t186.5 33.5q98 0 171.5 -25.5t118.5 -68t72.5 -105.5t37.5 -128.5t10 -146.5q0 -76 -4 -96h-750q0 -36 4 -76q5 -46 17.5 -87.5t39 -84t64 -73.5t97 -50.5t133.5 -19.5q100 0 173.5 25.5t164.5 79.5l47 -91 q-105 -70 -196.5 -100.5t-209.5 -30.5q-155 0 -261.5 67t-157 183.5t-50.5 274.5zM233 590h617q2 12 2 37q0 157 -69 231t-212 74q-65 0 -122 -19t-104.5 -58.5t-77 -107t-34.5 -157.5zM324 1341q0 49 25.5 73t66.5 24q90 0 90 -97q0 -46 -25.5 -70t-66.5 -24q-40 0 -65 23 t-25 71zM659 1341q0 49 26.5 73t68.5 24q88 0 88 -97q0 -46 -25.5 -70t-66.5 -24q-39 0 -65 23t-26 71z" />
<glyph unicode="&#xec;" horiz-adv-x="489" d="M-51 1493h188l248 -305h-143zM176 0v1010l137 18v-1028h-137z" />
<glyph unicode="&#xed;" horiz-adv-x="489" d="M106 1188l250 305h189l-297 -305h-142zM176 0v1010l137 18v-1028h-137z" />
<glyph unicode="&#xee;" horiz-adv-x="489" d="M-61 1188l239 303h133l236 -303h-137l-168 192l-168 -192h-135zM176 0v1010l137 18v-1028h-137z" />
<glyph unicode="&#xef;" horiz-adv-x="489" d="M-18 1341q0 49 25.5 73t66.5 24q90 0 90 -97q0 -46 -25.5 -70t-66.5 -24q-40 0 -65 23t-25 71zM176 0v1010l137 18v-1028h-137zM317 1341q0 49 26.5 73t68.5 24q88 0 88 -97q0 -46 -25.5 -70t-66.5 -24q-39 0 -65 23t-26 71z" />
<glyph unicode="&#xf0;" horiz-adv-x="1136" d="M94 487q0 248 129 397.5t355 149.5q88 0 160.5 -34.5t113.5 -98.5q-41 117 -89 199.5t-128 148.5l-246 -159l-59 90l213 139q-94 64 -240 106l45 95q173 -41 299 -127l213 139l64 -92l-183 -121q150 -135 224.5 -336.5t74.5 -445.5q0 -121 -27.5 -220.5t-83.5 -178.5 t-152 -123t-224 -44q-212 0 -335.5 143t-123.5 373zM236 526q0 -440 335 -440q147 0 236.5 106t89.5 306q0 74 -8 134t-30 116.5t-57.5 95t-93.5 61.5t-135 23q-82 0 -147.5 -33.5t-106 -90t-62 -128t-21.5 -150.5z" />
<glyph unicode="&#xf1;" horiz-adv-x="1187" d="M176 0v1010l133 18l4 -160q90 75 213.5 124.5t231.5 49.5q226 0 250 -194q10 -74 10 -246v-602h-135v563q0 167 -15 244q-11 48 -51.5 78t-107.5 30q-113 0 -206.5 -37.5t-189.5 -107.5v-770h-137zM287 1214q18 101 67.5 159.5t110.5 58.5q48 0 143 -50q74 -39 117 -39 q28 0 44.5 21t35.5 80h100q-17 -107 -65.5 -166t-110.5 -59q-53 0 -147 47q-86 45 -113 45q-26 0 -43.5 -21t-36.5 -76h-102z" />
<glyph unicode="&#xf2;" d="M94 492q0 272 126.5 414.5t369.5 142.5q225 0 336.5 -132t111.5 -385q0 -275 -122.5 -418t-360.5 -143q-222 0 -341.5 134.5t-119.5 386.5zM236 528q0 -129 23 -217.5t69 -136.5t103.5 -68t135.5 -20q75 0 133 21t103 67.5t68.5 128t23.5 195.5q0 86 -8.5 150.5 t-30 119.5t-57 90t-90.5 54.5t-129 19.5q-167 0 -255.5 -107.5t-88.5 -296.5zM297 1493h188l248 -305h-143z" />
<glyph unicode="&#xf3;" d="M94 492q0 272 126.5 414.5t369.5 142.5q225 0 336.5 -132t111.5 -385q0 -275 -122.5 -418t-360.5 -143q-222 0 -341.5 134.5t-119.5 386.5zM236 528q0 -129 23 -217.5t69 -136.5t103.5 -68t135.5 -20q75 0 133 21t103 67.5t68.5 128t23.5 195.5q0 86 -8.5 150.5 t-30 119.5t-57 90t-90.5 54.5t-129 19.5q-167 0 -255.5 -107.5t-88.5 -296.5zM426 1188l250 305h188l-297 -305h-141z" />
<glyph unicode="&#xf4;" d="M94 492q0 272 126.5 414.5t369.5 142.5q225 0 336.5 -132t111.5 -385q0 -275 -122.5 -418t-360.5 -143q-222 0 -341.5 134.5t-119.5 386.5zM236 528q0 -129 23 -217.5t69 -136.5t103.5 -68t135.5 -20q75 0 133 21t103 67.5t68.5 128t23.5 195.5q0 86 -8.5 150.5 t-30 119.5t-57 90t-90.5 54.5t-129 19.5q-167 0 -255.5 -107.5t-88.5 -296.5zM279 1188l239 303h133l236 -303h-137l-168 192l-168 -192h-135z" />
<glyph unicode="&#xf5;" d="M94 492q0 272 126.5 414.5t369.5 142.5q225 0 336.5 -132t111.5 -385q0 -275 -122.5 -418t-360.5 -143q-222 0 -341.5 134.5t-119.5 386.5zM236 528q0 -129 23 -217.5t69 -136.5t103.5 -68t135.5 -20q75 0 133 21t103 67.5t68.5 128t23.5 195.5q0 86 -8.5 150.5 t-30 119.5t-57 90t-90.5 54.5t-129 19.5q-167 0 -255.5 -107.5t-88.5 -296.5zM270 1214q18 101 68 159.5t111 58.5q48 0 143 -50q74 -39 117 -39q28 0 44 21t35 80h101q-17 -107 -65.5 -166t-110.5 -59q-54 0 -148 47q-86 45 -112 45t-43.5 -21t-36.5 -76h-103z" />
<glyph unicode="&#xf6;" d="M94 492q0 272 126.5 414.5t369.5 142.5q225 0 336.5 -132t111.5 -385q0 -275 -122.5 -418t-360.5 -143q-222 0 -341.5 134.5t-119.5 386.5zM236 528q0 -129 23 -217.5t69 -136.5t103.5 -68t135.5 -20q75 0 133 21t103 67.5t68.5 128t23.5 195.5q0 86 -8.5 150.5 t-30 119.5t-57 90t-90.5 54.5t-129 19.5q-167 0 -255.5 -107.5t-88.5 -296.5zM324 1341q0 49 25.5 73t66.5 24q90 0 90 -97q0 -46 -25.5 -70t-66.5 -24q-40 0 -65 23t-25 71zM659 1341q0 49 26.5 73t68.5 24q88 0 88 -97q0 -46 -25.5 -70t-66.5 -24q-39 0 -65 23t-26 71z " />
<glyph unicode="&#xf7;" horiz-adv-x="1433" d="M184 551v106h1065v-106h-1065zM641 268q0 42 21.5 62t56.5 20q74 0 74 -82q0 -42 -21 -63t-55 -21q-33 0 -54.5 20t-21.5 64zM641 930q0 43 21.5 63.5t56.5 20.5q74 0 74 -84q0 -41 -21 -62.5t-55 -21.5q-32 0 -54 20.5t-22 63.5z" />
<glyph unicode="&#xf8;" d="M94 492q0 272 127.5 414.5t370.5 142.5q148 0 246 -58l96 142l80 -54l-101 -147q125 -128 125 -400q0 -275 -123.5 -419t-359.5 -144q-153 0 -260 66l-84 -123l-82 51l92 133q-127 136 -127 396zM231 528q0 -214 64 -323l471 682q-70 49 -191 49q-167 0 -255.5 -108.5 t-88.5 -299.5zM362 131q72 -53 205 -53q78 0 137 21.5t104 69.5t68 130.5t23 198.5q0 218 -65 319z" />
<glyph unicode="&#xf9;" horiz-adv-x="1187" d="M176 412v598l139 18v-579q0 -165 13 -232q11 -50 56.5 -83.5t117.5 -33.5q113 0 196.5 36.5t182.5 109.5v764l137 18v-1028h-131l-4 147q-184 -174 -422 -174q-120 0 -190.5 52t-84.5 149q-10 74 -10 238zM315 1493h189l248 -305h-144z" />
<glyph unicode="&#xfa;" horiz-adv-x="1187" d="M176 412v598l139 18v-579q0 -165 13 -232q11 -50 56.5 -83.5t117.5 -33.5q113 0 196.5 36.5t182.5 109.5v764l137 18v-1028h-131l-4 147q-184 -174 -422 -174q-120 0 -190.5 52t-84.5 149q-10 74 -10 238zM449 1188l249 305h189l-297 -305h-141z" />
<glyph unicode="&#xfb;" horiz-adv-x="1187" d="M176 412v598l139 18v-579q0 -165 13 -232q11 -50 56.5 -83.5t117.5 -33.5q113 0 196.5 36.5t182.5 109.5v764l137 18v-1028h-131l-4 147q-184 -174 -422 -174q-120 0 -190.5 52t-84.5 149q-10 74 -10 238zM305 1188l240 303h133l235 -303h-137l-168 192l-168 -192h-135z " />
<glyph unicode="&#xfc;" horiz-adv-x="1187" d="M176 412v598l139 18v-579q0 -165 13 -232q11 -50 56.5 -83.5t117.5 -33.5q113 0 196.5 36.5t182.5 109.5v764l137 18v-1028h-131l-4 147q-184 -174 -422 -174q-120 0 -190.5 52t-84.5 149q-10 74 -10 238zM342 1341q0 49 25.5 73t66.5 24q90 0 90 -97q0 -46 -25.5 -70 t-66.5 -24q-40 0 -65 23t-25 71zM678 1341q0 49 26 73t68 24q88 0 88 -97q0 -46 -25.5 -70t-66.5 -24q-39 0 -64.5 23t-25.5 71z" />
<glyph unicode="&#xfd;" horiz-adv-x="1017" d="M14 1018h152q259 -635 356 -903q160 431 340 903h148l-361 -936q-52 -135 -94.5 -223t-92 -162t-105.5 -117t-126.5 -70.5t-164.5 -39.5l-27 116q71 10 125.5 31.5t96.5 53t79 82t66 107.5t63 140h-41zM393 1188l250 305h188l-296 -305h-142z" />
<glyph unicode="&#xfe;" horiz-adv-x="1177" d="M176 -504v1997l137 23v-639q210 165 410 165q174 0 267 -128t93 -384q0 -280 -127.5 -418.5t-357.5 -138.5q-158 0 -285 45v-522h-137zM313 139q52 -24 132 -37.5t153 -13.5q175 0 258.5 114.5t83.5 315.5q0 85 -13 153.5t-42 125t-81 87.5t-124 31q-97 0 -175.5 -32 t-191.5 -105v-639z" />
<glyph unicode="&#xff;" horiz-adv-x="1017" d="M14 1018h152q259 -635 356 -903q160 431 340 903h148l-361 -936q-52 -135 -94.5 -223t-92 -162t-105.5 -117t-126.5 -70.5t-164.5 -39.5l-27 116q71 10 125.5 31.5t96.5 53t79 82t66 107.5t63 140h-41zM270 1341q0 49 25.5 73t66.5 24q91 0 91 -97q0 -46 -25.5 -70 t-67.5 -24q-40 0 -65 23t-25 71zM606 1341q0 49 26 73t68 24q88 0 88 -97q0 -46 -25.5 -70t-66.5 -24q-39 0 -64.5 23t-25.5 71z" />
<glyph unicode="&#x152;" horiz-adv-x="2019" d="M104 690q0 153 36.5 275.5t99.5 204t152 135.5t189.5 78t215.5 24q116 0 262 -23h831v-133h-694v-467h641v-131h-641v-522h735v-131h-868q-144 -18 -297 -18q-307 0 -484.5 183.5t-177.5 524.5zM248 694q0 -153 42 -268.5t117 -183t169 -100.5t208 -33q157 0 271 20v1124 q-141 25 -260 25q-91 0 -170 -19t-149.5 -62.5t-120 -110t-78.5 -166.5t-29 -226z" />
<glyph unicode="&#x153;" horiz-adv-x="1878" d="M94 492q0 271 128 414t370 143q294 0 379 -246q54 123 159.5 184.5t243.5 61.5q102 0 177 -26.5t119.5 -69.5t71 -107.5t35.5 -129t9 -145.5q0 -17 -6 -92h-754q0 -33 4 -73q5 -46 17 -88t39 -85.5t64.5 -75t97.5 -51.5t134 -20q99 0 173.5 25t164.5 79l49 -92 q-101 -68 -195.5 -98.5t-213.5 -30.5q-152 0 -253 65.5t-146 184.5q-92 -250 -406 -250q-219 0 -340 136t-121 387zM236 528q0 -130 22.5 -218t68 -136t103 -68t137.5 -20q77 0 135 21t102.5 67.5t67.5 127.5t23 196q0 107 -15 183t-50.5 134t-98.5 86.5t-156 28.5 q-165 0 -252 -106.5t-87 -295.5zM1030 590h621q2 16 2 59q-6 151 -76 217t-209 66q-66 0 -123.5 -20t-104 -60.5t-75.5 -107.5t-35 -154z" />
<glyph unicode="&#x178;" horiz-adv-x="1220" d="M10 1384h166q376 -598 434 -702q48 84 439 702h161l-534 -837v-547h-141v547zM336 1624q0 48 26.5 72t67.5 24q90 0 90 -96q0 -46 -25.5 -70t-68.5 -24q-39 0 -64.5 23t-25.5 71zM698 1624q0 48 27 72t68 24q90 0 90 -96q0 -46 -25.5 -70t-66.5 -24q-40 0 -66.5 23 t-26.5 71z" />
<glyph unicode="&#x2c6;" horiz-adv-x="411" d="M-98 1188l239 303h133l236 -303h-137l-168 192l-168 -192h-135z" />
<glyph unicode="&#x2dc;" horiz-adv-x="411" d="M-102 1214q18 101 67.5 159.5t110.5 58.5q48 0 143 -50q74 -39 117 -39q28 0 44.5 21t35.5 80h100q-17 -107 -65.5 -166t-110.5 -59q-53 0 -147 47q-86 45 -113 45q-26 0 -43.5 -21t-36.5 -76h-102z" />
<glyph unicode="&#x2000;" horiz-adv-x="903" />
<glyph unicode="&#x2001;" horiz-adv-x="1806" />
<glyph unicode="&#x2002;" horiz-adv-x="903" />
<glyph unicode="&#x2003;" horiz-adv-x="1806" />
<glyph unicode="&#x2004;" horiz-adv-x="602" />
<glyph unicode="&#x2005;" horiz-adv-x="451" />
<glyph unicode="&#x2006;" horiz-adv-x="301" />
<glyph unicode="&#x2007;" horiz-adv-x="301" />
<glyph unicode="&#x2008;" horiz-adv-x="225" />
<glyph unicode="&#x2009;" horiz-adv-x="361" />
<glyph unicode="&#x200a;" horiz-adv-x="100" />
<glyph unicode="&#x2010;" horiz-adv-x="622" d="M76 459v129h471v-129h-471z" />
<glyph unicode="&#x2011;" horiz-adv-x="622" d="M76 459v129h471v-129h-471z" />
<glyph unicode="&#x2012;" horiz-adv-x="622" d="M76 459v129h471v-129h-471z" />
<glyph unicode="&#x2013;" horiz-adv-x="1075" d="M76 469v102h923v-102h-923z" />
<glyph unicode="&#x2014;" horiz-adv-x="1796" d="M76 469v102h1644v-102h-1644z" />
<glyph unicode="&#x2018;" horiz-adv-x="354" d="M70 963q22 219 147 471h107q-86 -213 -121 -471h-133z" />
<glyph unicode="&#x2019;" horiz-adv-x="356" d="M37 963q83 212 121 473h131q-19 -218 -146 -473h-106z" />
<glyph unicode="&#x201a;" horiz-adv-x="356" d="M37 -213q83 212 121 473h131q-20 -222 -144 -473h-108z" />
<glyph unicode="&#x201c;" horiz-adv-x="628" d="M70 963q20 218 145 471h109q-86 -213 -121 -471h-133zM342 963q25 226 147 471h109q-86 -213 -121 -471h-135z" />
<glyph unicode="&#x201d;" horiz-adv-x="628" d="M37 963q83 212 121 473h131q-20 -227 -142 -473h-110zM311 963q85 215 119 473h135q-25 -227 -147 -473h-107z" />
<glyph unicode="&#x201e;" horiz-adv-x="628" d="M37 -213q88 222 121 473h131q-20 -222 -144 -473h-108zM311 -213q85 215 119 473h135q-25 -227 -147 -473h-107z" />
<glyph unicode="&#x2022;" horiz-adv-x="634" d="M127 551q0 98 55 149.5t135 51.5q83 0 138 -47.5t55 -153.5q0 -93 -55 -144t-140 -51q-77 0 -132.5 50.5t-55.5 144.5z" />
<glyph unicode="&#x2026;" horiz-adv-x="1753" d="M190 86q0 53 30.5 81t74.5 28q42 0 71 -25.5t29 -83.5q0 -49 -29 -74.5t-75 -25.5q-40 0 -70.5 25t-30.5 75zM774 86q0 53 30.5 81t72.5 28q44 0 73 -25.5t29 -83.5q0 -49 -29 -74.5t-76 -25.5q-41 0 -70.5 25t-29.5 75zM1358 86q0 54 30.5 81.5t73.5 27.5 q44 0 73.5 -25.5t29.5 -83.5q0 -49 -29.5 -74.5t-77.5 -25.5q-40 0 -70 25t-30 75z" />
<glyph unicode="&#x202f;" horiz-adv-x="361" />
<glyph unicode="&#x2039;" horiz-adv-x="665" d="M84 514l344 381h141l-327 -377l327 -387h-141z" />
<glyph unicode="&#x203a;" horiz-adv-x="663" d="M96 895h144l344 -383l-344 -381h-142l326 377z" />
<glyph unicode="&#x205f;" horiz-adv-x="451" />
<glyph unicode="&#x20ac;" horiz-adv-x="1394" d="M178 494v84h156v49q0 43 4 121h-160v83h170q80 517 592 517q180 0 315 -64l-43 -117q-129 58 -268 58q-186 0 -302 -92t-153 -302h560v-83h-570q-4 -35 -4 -113v-57h574v-84h-566q55 -398 424 -398q180 0 355 129l53 -100q-100 -77 -196.5 -115.5t-227.5 -38.5 q-234 0 -377.5 133t-173.5 390h-162z" />
<glyph unicode="&#x2122;" horiz-adv-x="1775" d="M131 1294v90h549v-90h-227v-637h-99v637h-223zM831 657l23 727h133q183 -382 219 -475q9 24 217 475h131l25 -727h-96q-19 463 -21 607q-56 -142 -221 -488h-74l-229 481q0 -209 -12 -600h-95z" />
<glyph unicode="&#x25fc;" horiz-adv-x="1013" d="M0 0v1014h1014v-1014h-1014z" />
</font>
</defs>
</svg>
