<?xml version="1.0" standalone="no"?>
<!DOCTYPE svg PUBLIC "-//W3C//DTD SVG 1.1//EN" "http://www.w3.org/Graphics/SVG/1.1/DTD/svg11.dtd" >
<svg xmlns="http://www.w3.org/2000/svg" xmlns:xlink="http://www.w3.org/1999/xlink" version="1.1">
<metadata></metadata>
<defs>
<font id="foro_sansextrabold" horiz-adv-x="1118" >
<font-face units-per-em="2048" ascent="1513" descent="-535" />
<missing-glyph horiz-adv-x="468" />
<glyph unicode="&#xfb01;" horiz-adv-x="1284" d="M14 778v234l154 18v62q0 206 86 301q47 52 136 82t190 30q127 0 208 -16l-28 -236q-48 7 -111 7q-83 0 -119 -46q-28 -38 -28 -135v-49h665v-1030h-333v778h-332v-778h-334v778h-154zM836 1323q0 85 48 126.5t124 41.5q163 0 163 -168q0 -82 -46 -125t-124 -43 q-72 0 -118.5 40.5t-46.5 127.5z" />
<glyph unicode="&#xfb02;" horiz-adv-x="1288" d="M14 778v234l154 18v62q0 199 92 294q52 57 147.5 88t264.5 31q226 0 495 -28v-1477h-331v1255q-69 5 -156 5q-112 0 -148 -48q-30 -44 -30 -141v-41h196v-252h-196v-778h-334v778h-154z" />
<glyph unicode="&#xfb03;" horiz-adv-x="1949" d="M14 778v234l154 18v21q0 206 86 301q47 52 137 82t191 30q114 0 206 -18l-28 -236q-55 9 -113 9q-92 0 -119 -45q-26 -44 -26 -123v-21h332v62q0 206 86 301q47 52 135.5 82t189.5 30q128 0 209 -16l-29 -236q-48 7 -110 7q-79 0 -119 -46q-29 -39 -29 -135v-49h664 v-1030h-332v778h-332v-778h-333v778h-332v-778h-334v778h-154zM1501 1323q0 84 49 126t125 42q162 0 162 -168q0 -82 -46 -125t-124 -43q-72 0 -119 41t-47 127z" />
<glyph unicode="&#xfb04;" horiz-adv-x="1953" d="M14 778v234l154 18v21q0 206 86 301q47 52 136 82t192 30q114 0 206 -18l-28 -236q-55 9 -113 9q-92 0 -119 -45q-26 -44 -26 -123v-21h332v62q0 199 92 294q52 57 147 88t264 31q227 0 496 -28v-1477h-332v1255q-71 5 -155 5q-110 0 -146 -48q-33 -42 -33 -141v-41h197 v-252h-197v-778h-333v778h-332v-778h-334v778h-154z" />
<glyph horiz-adv-x="0" />
<glyph horiz-adv-x="682" />
<glyph unicode=" "  horiz-adv-x="468" />
<glyph unicode="&#x09;" horiz-adv-x="468" />
<glyph unicode="&#xa0;" horiz-adv-x="468" />
<glyph unicode="!" horiz-adv-x="628" d="M145 166q0 96 56.5 146t134.5 50q36 0 67.5 -9.5t59 -31t43.5 -61t16 -94.5q0 -94 -52.5 -141.5t-139.5 -47.5q-32 0 -63 10t-59 31t-45.5 59.5t-17.5 88.5zM158 1384h364q0 -49 -47 -892h-270q-47 843 -47 892z" />
<glyph unicode="&#x22;" horiz-adv-x="819" d="M84 1427h266l-51 -579h-164zM469 1427h268l-53 -579h-162z" />
<glyph unicode="#" horiz-adv-x="1218" d="M74 367v225h264l29 174h-232v225h260l51 340h156l-51 -340h217l49 340h152l-49 -340h227v-225h-258l-27 -174h221v-225h-252l-55 -367h-151l53 367h-217l-51 -367h-156l51 367h-231zM494 592h217l26 174h-219z" />
<glyph unicode="$" horiz-adv-x="1183" d="M47 80l78 264q201 -88 399 -88q203 0 203 106q0 47 -28.5 78t-116.5 58l-185 57q-147 46 -217.5 140.5t-70.5 252.5q0 143 92.5 245t279.5 130v221h181v-213q203 -7 352 -61l-68 -262q-82 27 -185 44t-186 17q-155 0 -155 -106q0 -43 28 -69.5t109 -51.5l178 -54 q173 -54 244.5 -151.5t71.5 -241.5q0 -67 -21 -128.5t-64.5 -117t-121.5 -95t-182 -54.5v-207h-181v199q-238 9 -434 88z" />
<glyph unicode="%" horiz-adv-x="1814" d="M61 891q0 211 92.5 330.5t274.5 119.5q340 0 340 -413q0 -218 -96 -337.5t-262 -119.5q-168 0 -258.5 110.5t-90.5 309.5zM289 903q0 -76 10 -127.5t28.5 -77.5t40 -36.5t50.5 -10.5q61 0 96 56t35 200q0 102 -14.5 158t-41.5 76t-75 20q-62 0 -95.5 -54.5t-33.5 -203.5z M510 0l651 1321h139l-651 -1321h-139zM1047 401q0 211 92 331t274 120q340 0 340 -414q0 -218 -95.5 -337t-262.5 -119q-168 0 -258 110t-90 309zM1276 414q0 -75 10 -127t28.5 -78t39.5 -36.5t49 -10.5q29 0 51.5 11.5t41.5 38.5t29.5 79t10.5 127q0 102 -15 158t-42 76 t-74 20q-62 0 -95.5 -54.5t-33.5 -203.5z" />
<glyph unicode="&#x26;" horiz-adv-x="1562" d="M78 410q0 147 82 245t241 162q-86 123 -86 254q0 73 22.5 132.5t70 107.5t130.5 75t195 27q404 0 404 -315q0 -218 -303 -375q131 -175 229 -250q38 47 65.5 110t38.5 119l283 -63q-21 -97 -75 -198.5t-103 -147.5q90 -62 235 -92l-49 -248q-121 10 -219 40.5t-186 96.5 q-74 -53 -180.5 -86t-233.5 -33q-257 0 -409 112.5t-152 326.5zM401 418q0 -72 56.5 -123t160.5 -51q110 0 195 49q-120 103 -278 319q-134 -71 -134 -194zM623 1075q0 -84 73 -174q83 36 126.5 85.5t43.5 103.5q0 100 -116 100q-63 0 -95 -31t-32 -84z" />
<glyph unicode="'" horiz-adv-x="432" d="M84 1427h266l-51 -579h-164z" />
<glyph unicode="(" horiz-adv-x="696" d="M90 565q0 274 105.5 492t300.5 399h176q-157 -224 -231 -426.5t-74 -456.5q0 -144 23.5 -275.5t69.5 -247t95 -207t117 -193.5h-174q-78 68 -146 154t-129.5 199.5t-97 258.5t-35.5 303z" />
<glyph unicode=")" horiz-adv-x="698" d="M25 -348q156 221 229.5 424t73.5 459q0 143 -23.5 274.5t-68.5 246.5t-94.5 207.5t-116.5 192.5h174q61 -53 116.5 -116.5t110.5 -150.5t94 -183t63.5 -216t24.5 -247q0 -516 -407 -891h-176z" />
<glyph unicode="*" horiz-adv-x="872" d="M45 1075l55 178q159 -50 256 -92q-13 113 -16 269h188q0 -111 -10 -271q120 49 254 96l57 -184q-183 -52 -264 -74q118 -137 170 -209l-147 -108q-118 160 -156 219q-115 -173 -147 -217l-154 104q59 82 174 215q-103 22 -260 74z" />
<glyph unicode="+" horiz-adv-x="1433" d="M184 500v207h424v428h219v-428h422v-207h-422v-430h-217v430h-426z" />
<glyph unicode="," horiz-adv-x="512" d="M0 -350q41 118 76.5 300t50.5 353h297q-20 -162 -83.5 -349.5t-127.5 -303.5h-213z" />
<glyph unicode="-" horiz-adv-x="622" d="M70 412v225h483v-225h-483z" />
<glyph unicode="." horiz-adv-x="512" d="M68 166q0 98 55 147t135 49q77 0 130.5 -46t53.5 -150q0 -95 -51.5 -142t-138.5 -47q-33 0 -64 10t-58.5 31t-44.5 59.5t-17 88.5z" />
<glyph unicode="/" horiz-adv-x="860" d="M-12 -205l671 1663h170l-669 -1663h-172z" />
<glyph unicode="0" horiz-adv-x="1239" d="M72 633q0 348 142 531.5t425 183.5q275 0 401.5 -167t126.5 -489q0 -358 -148 -539.5t-409 -181.5q-260 0 -399 168.5t-139 493.5zM412 651q0 -127 15 -211t45.5 -125.5t65.5 -57t85 -15.5q41 0 72 10t59.5 38t47 73.5t29.5 120t11 175.5q0 165 -21.5 255.5t-65 126.5 t-122.5 36q-53 0 -91 -18.5t-68.5 -64.5t-46 -131.5t-15.5 -211.5z" />
<glyph unicode="1" horiz-adv-x="1239" d="M162 1067q226 147 383 258h295v-1325h-322v999q-113 -74 -233 -139z" />
<glyph unicode="2" horiz-adv-x="1239" d="M78 0v219q162 115 283 212t245 216q127 121 127 258q0 75 -43.5 122.5t-140.5 47.5q-160 0 -350 -94l-88 227q118 67 249.5 103.5t243.5 36.5q239 0 358 -104.5t119 -295.5q0 -126 -59.5 -230t-171.5 -206q-111 -102 -322 -244q192 4 598 4v-272h-1048z" />
<glyph unicode="3" horiz-adv-x="1239" d="M80 18l53 265q44 -13 128 -26t145 -13q95 0 158.5 10.5t99 33t49.5 52t14 72.5q0 139 -211 139q-96 0 -158 -6v246q145 5 223 26.5t102 53t24 85.5q0 119 -160 119q-168 0 -348 -78l-80 232q241 119 477 119q438 0 438 -340q0 -84 -63 -166.5t-180 -118.5 q142 -18 216 -96.5t74 -200.5q0 -229 -155 -343t-482 -114q-82 0 -193 15.5t-171 33.5z" />
<glyph unicode="4" horiz-adv-x="1239" d="M59 297v186l580 842h346v-766h199v-262h-199v-317h-330v317h-596zM365 559h290q0 299 4 442q-97 -157 -294 -442z" />
<glyph unicode="5" horiz-adv-x="1239" d="M104 18l54 263q37 -13 124.5 -26t155.5 -13q90 0 151.5 13.5t93.5 40t45 58.5t13 76q0 93 -60 136.5t-198 43.5q-62 0 -151 -10.5t-142 -24.5l72 750h789v-272h-533l-18 -217q58 12 147 12q122 0 212 -30.5t140 -85t73.5 -120t23.5 -143.5q0 -254 -157 -376t-478 -122 q-98 0 -200 13t-157 34z" />
<glyph unicode="6" horiz-adv-x="1239" d="M109 598q0 750 702 750q69 0 157 -13t152 -41l-82 -262q-48 20 -120.5 31.5t-131.5 11.5q-160 0 -239.5 -73t-97.5 -248q50 53 134 85.5t173 32.5q201 0 301 -104.5t100 -318.5q0 -103 -31 -188.5t-92 -151t-160.5 -102t-228.5 -36.5q-256 0 -396 163t-140 464zM457 526 q3 -286 184 -286q81 0 127.5 47t46.5 147q0 102 -41.5 145.5t-126.5 43.5q-54 0 -107.5 -27t-82.5 -70z" />
<glyph unicode="7" horiz-adv-x="1239" d="M115 1053v272h1032v-233q-269 -584 -473 -1092h-373q202 503 500 1053h-686z" />
<glyph unicode="8" horiz-adv-x="1239" d="M86 371q0 219 242 305q-105 46 -153 125.5t-48 173.5q0 99 37.5 172t106 116t157.5 64t199 21q112 0 200 -19.5t155 -60t102.5 -109t35.5 -160.5q0 -96 -51.5 -178.5t-163.5 -128.5q127 -40 186.5 -117.5t59.5 -181.5q0 -195 -140.5 -308.5t-396.5 -113.5 q-118 0 -212 22.5t-166 69t-111 124.5t-39 184zM428 393q0 -81 50.5 -122.5t139.5 -41.5q92 0 142.5 41t50.5 121q0 75 -50.5 116.5t-146.5 57.5q-90 -14 -138 -61.5t-48 -110.5zM444 942q0 -68 46 -101t137 -55q84 14 132 55.5t48 104.5q0 66 -44 105t-132 39 q-86 0 -136.5 -38.5t-50.5 -109.5z" />
<glyph unicode="9" horiz-adv-x="1239" d="M92 864q0 103 30.5 189t91.5 153t162 104.5t232 37.5q261 0 397 -163.5t136 -467.5q0 -377 -173 -561.5t-524 -184.5q-73 0 -166.5 12.5t-156.5 39.5l84 264q46 -20 122 -31.5t136 -11.5q165 0 242 70.5t96 246.5q-51 -51 -134.5 -80.5t-174.5 -29.5q-201 0 -300.5 100 t-99.5 313zM432 879q0 -181 170 -181q53 0 105.5 28t83.5 71q-1 149 -46.5 214.5t-136.5 65.5q-81 0 -128.5 -49t-47.5 -149z" />
<glyph unicode=":" horiz-adv-x="552" d="M109 166q0 98 55 147t135 49q77 0 130.5 -46t53.5 -150q0 -95 -51.5 -142t-138.5 -47q-33 0 -64 10t-58.5 31t-44.5 59.5t-17 88.5zM109 809q0 96 55.5 146.5t134.5 50.5q77 0 130.5 -47t53.5 -150q0 -93 -51.5 -140.5t-138.5 -47.5q-33 0 -63.5 9.5t-58.5 30.5t-45 59 t-17 89z" />
<glyph unicode=";" horiz-adv-x="552" d="M55 -350q40 117 75 298.5t50 354.5h299q-20 -162 -83.5 -349.5t-127.5 -303.5h-213zM125 809q0 96 55.5 146.5t134.5 50.5q77 0 131 -47t54 -150q0 -93 -52 -140.5t-139 -47.5q-33 0 -63.5 9.5t-58.5 30.5t-45 59t-17 89z" />
<glyph unicode="&#x3c;" horiz-adv-x="1433" d="M227 489v224l932 456v-241l-708 -324l708 -315v-246z" />
<glyph unicode="=" horiz-adv-x="1433" d="M184 260v207h1065v-207h-1065zM184 737v209h1065v-209h-1065z" />
<glyph unicode="&#x3e;" horiz-adv-x="1433" d="M274 43v242l713 323l-713 316v245l936 -450v-219z" />
<glyph unicode="?" horiz-adv-x="960" d="M76 1356q74 28 186.5 45.5t188.5 17.5q222 0 334 -83t112 -261q0 -111 -43 -195t-170 -180q-66 -49 -87.5 -79.5t-21.5 -79.5q0 -29 3 -41l-275 -17q-10 45 -10 88q0 60 17.5 100t74.5 91q94 81 133 135.5t39 112.5q0 141 -170 141q-121 0 -258 -41zM252 166q0 96 56 146 t134 50q77 0 131 -46t54 -150q0 -95 -52 -142t-139 -47q-33 0 -64 10t-58.5 31t-44.5 59.5t-17 88.5z" />
<glyph unicode="@" horiz-adv-x="1638" d="M106 414q0 177 61.5 331.5t168 264t256 172.5t319.5 63q293 0 463 -158t170 -432q0 -150 -57.5 -279.5t-160 -208.5t-226.5 -79q-119 0 -156 78q-9 16 -16 43q-57 -55 -115 -86t-145 -31q-100 0 -166 68t-66 198q0 101 37.5 210t104.5 186q118 137 315 137q97 0 174 -47 l31 63l153 -10l-116 -491q-11 -48 -11 -99q0 -57 58 -57q75 0 144 114.5t69 284.5q0 121 -36 211t-102 144.5t-153 81t-195 26.5q-191 0 -339 -91.5t-227 -249.5t-79 -355q0 -164 67.5 -291t201.5 -201t317 -74q155 0 271.5 37t246.5 109l68 -117q-286 -168 -607 -168 q-329 0 -526 193.5t-197 509.5zM645 391q0 -73 30 -102t87 -29q53 0 153 49l91 400q-64 22 -117 22q-96 0 -156 -76q-38 -45 -63 -125.5t-25 -138.5z" />
<glyph unicode="A" horiz-adv-x="1409" d="M8 0l500 1384h407l486 -1384h-375l-98 299h-451l-102 -299h-367zM563 584h285q-125 408 -135 446q-12 -40 -150 -446z" />
<glyph unicode="B" horiz-adv-x="1284" d="M133 0v1384h348q239 0 359 -18q315 -50 315 -313q0 -131 -60.5 -208.5t-197.5 -113.5q320 -27 320 -323q0 -160 -91 -257.5t-254 -125.5q-67 -12 -134.5 -17.5t-111 -6.5t-128.5 -1h-365zM473 281h123q118 0 170 16q94 34 94 139q0 114 -127 133q-75 11 -141 11h-119 v-299zM473 838h111q98 0 145 18q80 28 80 127q0 82 -74 107q-53 16 -147 16h-115v-268z" />
<glyph unicode="C" horiz-adv-x="1277" d="M70 657q0 365 177 560.5t498 195.5q264 0 435 -76l-90 -262q-141 55 -302 55q-68 0 -119 -10t-100 -39t-80 -79t-50 -134.5t-19 -199.5q0 -103 18.5 -178t49 -120t77.5 -71.5t95.5 -35.5t111.5 -9q91 0 176 25.5t189 74.5l98 -237q-122 -74 -247 -110t-279 -36 q-311 0 -475 178.5t-164 507.5z" />
<glyph unicode="D" horiz-adv-x="1415" d="M133 0v1382h297q268 0 432 -28q486 -79 486 -615q0 -262 -84 -428.5t-289 -247.5q-72 -29 -178 -43.5t-188.5 -17t-225.5 -2.5h-250zM477 295h92q147 0 238 35q98 37 141 130.5t43 252.5q0 106 -31 190t-92 125q-84 55 -286 55h-105v-788z" />
<glyph unicode="E" horiz-adv-x="1189" d="M133 0v1384h948v-301h-604v-223h531v-299h-531v-266h656v-295h-1000z" />
<glyph unicode="F" horiz-adv-x="1120" d="M133 0v1384h936v-301h-592v-278h516v-297h-516v-508h-344z" />
<glyph unicode="G" horiz-adv-x="1400" d="M70 657q0 365 178 560.5t506 195.5q278 0 475 -80l-90 -258q-66 26 -165.5 43t-176.5 17q-70 0 -122.5 -10.5t-102.5 -40.5t-82 -81t-51 -135t-19 -200q0 -102 19 -177t49.5 -119.5t77.5 -71t94.5 -35.5t109.5 -9q106 0 195 29v186h-197v289h520v-680 q-247 -109 -575 -109q-313 0 -478 179t-165 507z" />
<glyph unicode="H" horiz-adv-x="1456" d="M133 0v1384h344v-524h504v524h344v-1384h-344v563h-504v-563h-344z" />
<glyph unicode="I" horiz-adv-x="610" d="M133 0v1384h344v-1384h-344z" />
<glyph unicode="J" horiz-adv-x="868" d="M2 12l57 264q92 -28 199 -28q90 0 123 49q31 50 31 205v882h327v-866q0 -233 -39 -334q-37 -89 -133.5 -150t-251.5 -61q-201 0 -313 39z" />
<glyph unicode="K" horiz-adv-x="1386" d="M133 0v1384h344v-550l455 550h395l-467 -550l512 -834h-409l-338 557l-148 -168v-389h-344z" />
<glyph unicode="L" horiz-adv-x="1165" d="M133 0v1384h344v-1089h639v-295h-983z" />
<glyph unicode="M" horiz-adv-x="1761" d="M117 0l49 1384h473q191 -494 248 -673q63 184 256 673h450l43 -1384h-344q-23 692 -26 967q-63 -197 -271 -734h-252q-223 599 -266 732q-2 -223 -28 -965h-332z" />
<glyph unicode="N" horiz-adv-x="1439" d="M133 0v1384h402q245 -408 321 -539t121 -224q-6 176 -8 763h338v-1384h-363q-416 730 -477 844q4 -106 4 -844h-338z" />
<glyph unicode="O" horiz-adv-x="1488" d="M70 664q0 749 698 749q323 0 487 -172t164 -512q0 -374 -179.5 -566t-516.5 -192q-308 0 -480.5 177t-172.5 516zM420 709q0 -116 18 -201.5t46.5 -134.5t73 -78t87 -38t98.5 -9q74 0 128.5 19.5t99.5 66t68.5 133.5t23.5 213q0 244 -68 350.5t-243 106.5 q-169 0 -250.5 -103.5t-81.5 -324.5z" />
<glyph unicode="P" horiz-adv-x="1280" d="M133 0v1384h365q223 0 344 -18q192 -28 283.5 -131t91.5 -303q0 -179 -83 -299.5t-247 -159.5q-131 -29 -293 -29h-117v-444h-344zM477 709h90q132 0 191 22q106 41 106 176q0 134 -121 166q-61 17 -161 17h-105v-381z" />
<glyph unicode="Q" horiz-adv-x="1488" d="M70 664q0 749 698 749q323 0 487 -172t164 -512q0 -255 -85.5 -427t-248.5 -255q247 -93 428 -98l-20 -264q-213 0 -400 54.5t-380 174.5q-64 39 -154 72q-234 43 -361.5 215.5t-127.5 462.5zM420 709q0 -116 18 -201.5t46.5 -134.5t73 -78t87 -38t98.5 -9 q74 0 128.5 19.5t99.5 66t68.5 133.5t23.5 213q0 244 -68 350.5t-243 106.5q-169 0 -250.5 -103.5t-81.5 -324.5z" />
<glyph unicode="R" horiz-adv-x="1280" d="M135 0v1384h494q203 0 334 -41q113 -35 178 -128t65 -242q0 -67 -11.5 -123t-38.5 -110.5t-78.5 -98.5t-125.5 -74l314 -567h-379l-254 510h-66h-90v-510h-342zM477 776h94q81 0 129.5 5.5t81.5 23.5q70 39 70 139q0 108 -74 141q-54 25 -174 25h-127v-334z" />
<glyph unicode="S" horiz-adv-x="1216" d="M57 68l84 274q69 -28 120 -45.5t136 -33t174 -15.5q220 0 220 129q0 52 -31 80.5t-127 58.5l-203 64q-159 48 -236 148t-77 265q0 66 19.5 126.5t63 114.5t107 93.5t157.5 62.5t208 23q245 0 424 -67l-72 -275q-205 66 -389 66q-97 0 -136.5 -34.5t-39.5 -86.5 q0 -53 28.5 -80.5t118.5 -54.5l195 -60q190 -57 267 -158.5t77 -254.5q0 -54 -13 -105t-40 -101t-73 -91t-107.5 -73t-149 -49.5t-191.5 -17.5q-136 0 -272 26t-242 71z" />
<glyph unicode="T" horiz-adv-x="1222" d="M49 1083v301h1125v-301h-388v-1083h-344v1083h-393z" />
<glyph unicode="U" horiz-adv-x="1429" d="M123 580v804h344v-802q0 -148 22 -205q20 -57 78.5 -93t149.5 -36q178 0 229 125q25 61 25 207v804h338v-782q0 -289 -76 -409q-140 -222 -533 -222q-370 0 -505 215q-72 114 -72 394z" />
<glyph unicode="V" horiz-adv-x="1380" d="M8 1384h373q247 -776 303 -981q39 142 322 981h368l-493 -1384h-410z" />
<glyph unicode="W" horiz-adv-x="1990" d="M39 1384h373q129 -613 188 -960q27 158 66.5 336t146.5 624h379q105 -446 144 -624.5t65 -335.5q47 298 190 960h363l-334 -1384h-395q-179 753 -209 900q-8 39 -17 85q-29 -155 -65.5 -307.5t-169.5 -677.5h-399z" />
<glyph unicode="X" horiz-adv-x="1425" d="M27 0l450 723l-420 661h412q128 -198 262 -419q7 12 36 63t51.5 90t67.5 112t95 152h375l-426 -663l467 -719h-422q-81 130 -146.5 232.5t-94.5 148t-46 74.5q-18 -32 -272 -455h-389z" />
<glyph unicode="Y" horiz-adv-x="1349" d="M8 1382h395q28 -53 70.5 -132t58 -109t41.5 -79t35.5 -68.5t25 -50.5t24.5 -51.5t20 -45.5q48 99 289 536h374l-497 -866v-516h-344v516z" />
<glyph unicode="Z" horiz-adv-x="1284" d="M55 0v227q237 293 393 488t214 269t79 99h-635l44 301h1056v-227q-225 -289 -366 -468t-221 -278t-89 -110h693v-301h-1168z" />
<glyph unicode="[" horiz-adv-x="675" d="M139 -348v1800h482v-156h-215v-1486h215v-158h-482z" />
<glyph unicode="\" horiz-adv-x="860" d="M33 1458h168l671 -1663h-170z" />
<glyph unicode="]" horiz-adv-x="675" d="M57 -193h215v1487h-215v158h482v-1800h-482v155z" />
<glyph unicode="^" horiz-adv-x="1478" d="M225 573l396 809h239l395 -809h-247l-271 564l-266 -564h-246z" />
<glyph unicode="_" horiz-adv-x="1026" d="M0 -182h1026v-117h-1026v117z" />
<glyph unicode="`" horiz-adv-x="411" d="M-78 1513h326l244 -325h-234z" />
<glyph unicode="a" d="M63 309q0 109 48 171t145 91q141 44 416 54v43q0 65 -23 94q-27 39 -123 39q-135 0 -340 -60l-53 226q110 43 245 67.5t243 24.5q130 0 217 -35.5t131 -128.5q35 -74 35 -258v-637h-308l-6 96q-105 -119 -284 -119q-84 0 -151.5 29.5t-108 78t-62 106.5t-21.5 118z M385 311q0 -51 32 -80.5t91 -29.5q53 0 90.5 16t75.5 47v168q-127 -7 -209 -26q-80 -22 -80 -95z" />
<glyph unicode="b" horiz-adv-x="1228" d="M121 37v1444l334 45v-588q67 49 159.5 85t182.5 36q180 0 274 -129.5t94 -384.5q0 -284 -142.5 -429t-395.5 -145q-126 0 -264.5 18t-241.5 48zM455 238q81 -15 151 -15q103 0 156 68t53 227q0 148 -45.5 210.5t-132.5 62.5q-82 0 -182 -43v-510z" />
<glyph unicode="c" horiz-adv-x="989" d="M63 492q0 277 140.5 422t412.5 145q170 0 312 -45l-72 -254q-103 37 -229 37q-57 0 -98.5 -13t-74.5 -44.5t-50 -91.5t-17 -148q0 -279 238 -279q76 0 126.5 11.5t120.5 41.5l89 -204q-102 -54 -195 -76.5t-219 -22.5q-226 0 -355 140t-129 381z" />
<glyph unicode="d" horiz-adv-x="1239" d="M63 500q0 282 144 417.5t397 135.5q107 0 180 -17v445l334 43v-1524h-325l-9 88q-108 -111 -297 -111q-206 0 -315 134t-109 389zM414 518q0 -82 17.5 -139t47.5 -85.5t61 -40t66 -11.5q93 0 178 45v508q-57 14 -133 14q-113 0 -175 -65.5t-62 -225.5z" />
<glyph unicode="e" d="M63 496q0 139 42 248t115 177t166.5 103t201.5 35q87 0 156.5 -15.5t118 -42t84 -67t56.5 -83.5t33.5 -100t16.5 -108t4 -115q0 -73 -6 -108h-664q0 -17 4 -41q14 -72 71.5 -115t162.5 -43q188 0 340 70l86 -195q-119 -67 -233 -96t-251 -29q-242 0 -373 142.5 t-131 382.5zM397 631h359q2 12 2 49q0 154 -172 154q-86 0 -137 -54t-52 -149z" />
<glyph unicode="f" horiz-adv-x="720" d="M14 778v234l154 18v62q0 206 86 301q47 52 137 82t191 30q126 0 217 -18l-27 -236q-61 9 -119 9q-87 0 -123 -46q-28 -38 -28 -135v-49h196v-252h-196v-778h-334v778h-154z" />
<glyph unicode="g" horiz-adv-x="1089" d="M10 -250q0 69 50.5 125t158.5 105q-66 22 -97.5 62t-31.5 103q0 59 29 110.5t102 123.5q-74 39 -110.5 118t-36.5 177q0 63 16 118.5t51 105t88 85t131 56t175 20.5q137 0 223 -29h325v-252h-131q23 -42 23 -104q0 -176 -126.5 -270.5t-324.5 -94.5q-90 0 -145 15 q-29 -20 -29 -56q0 -16 18 -27t70 -18q12 -2 181 -22.5t182 -22.5q89 -15 145.5 -38.5t88 -62t43.5 -85.5t12 -117q0 -184 -149 -294.5t-445 -110.5q-108 0 -193.5 16.5t-139 43.5t-89 64t-50 75.5t-14.5 80.5zM305 -188q0 -55 65 -88t191 -33q98 0 145.5 31.5t47.5 82.5 q0 41 -25 62t-102 35q-13 2 -124 17.5t-122 17.5q-44 -33 -60 -59t-16 -66zM383 680q0 -162 147 -162q156 0 156 168q0 72 -35.5 116t-115.5 44q-77 0 -114.5 -47t-37.5 -119z" />
<glyph unicode="h" horiz-adv-x="1232" d="M121 0v1481l334 43v-606q84 67 187 104t198 37q120 0 187 -52.5t79 -150.5q10 -74 10 -262v-594h-332v535q0 142 -16 192q-23 64 -109 64q-94 0 -204 -54v-737h-334z" />
<glyph unicode="i" horiz-adv-x="571" d="M121 0v1012l334 43v-1055h-334zM123 1323q0 85 48 126.5t124 41.5q164 0 164 -168q0 -82 -46 -125t-124 -43q-73 0 -119.5 41t-46.5 127z" />
<glyph unicode="j" horiz-adv-x="575" d="M-172 -240q217 90 264 185q33 65 33 211v856l332 43v-946q0 -227 -78 -332q-59 -83 -176.5 -158t-272.5 -123zM127 1323q0 85 48 126.5t124 41.5q162 0 162 -168q0 -82 -46 -125t-124 -43q-71 0 -117.5 41t-46.5 127z" />
<glyph unicode="k" horiz-adv-x="1181" d="M121 0v1481l334 43v-822l303 328h397l-358 -379l372 -651h-381l-223 401l-110 -104v-297h-334z" />
<glyph unicode="l" horiz-adv-x="575" d="M121 0v1481l334 43v-1524h-334z" />
<glyph unicode="m" horiz-adv-x="1886" d="M121 0v1012l330 43v-140q86 67 190 105.5t199 38.5q203 0 256 -150q85 67 195.5 108.5t205.5 41.5q236 0 264 -203q8 -59 8 -262v-594h-331v535q0 145 -15 194q-23 62 -108 62q-87 0 -205 -52q2 -43 2 -151v-588h-334v535q0 156 -14 194q-20 62 -105 62q-91 0 -204 -52 v-739h-334z" />
<glyph unicode="n" horiz-adv-x="1232" d="M121 0v1012l330 43v-140q86 67 190.5 105.5t198.5 38.5q120 0 187 -52.5t79 -150.5q10 -74 10 -262v-594h-332v535q0 148 -14 194q-23 62 -111 62q-91 0 -204 -52v-739h-334z" />
<glyph unicode="o" horiz-adv-x="1214" d="M63 494q0 565 572 565q258 0 386 -131.5t128 -386.5q0 -280 -143 -425t-418 -145q-251 0 -388 133.5t-137 389.5zM408 528q0 -99 13 -163t40 -97t59.5 -45t81.5 -12q50 0 84.5 12t62 43.5t41 90t13.5 147.5q0 169 -38.5 242t-152.5 73q-109 0 -156.5 -72t-47.5 -219z" />
<glyph unicode="p" horiz-adv-x="1228" d="M121 -504v1512l332 43l2 -113q67 49 160 85t182 36q180 0 274 -129.5t94 -384.5q0 -283 -142.5 -425.5t-395.5 -142.5q-102 0 -172 17v-498h-334zM455 246q73 -17 151 -17q104 0 156.5 65.5t52.5 223.5q0 148 -45.5 210.5t-132.5 62.5q-82 0 -182 -43v-502z" />
<glyph unicode="q" horiz-adv-x="1236" d="M63 500q0 559 568 559q278 0 487 -49v-1514h-334v598q-55 -56 -133 -86.5t-164 -30.5q-206 0 -315 134t-109 389zM414 518q0 -270 192 -270q87 0 178 43v506q-64 12 -133 12q-113 0 -175 -65.5t-62 -225.5z" />
<glyph unicode="r" horiz-adv-x="851" d="M121 0v1012l330 43v-166q46 78 120.5 123t171.5 45q53 0 91 -6l-31 -283q-42 10 -117 10q-132 0 -231 -51v-727h-334z" />
<glyph unicode="s" horiz-adv-x="960" d="M39 37l67 242q181 -68 353 -68q62 0 90.5 23.5t28.5 58.5q0 33 -19 51.5t-67 30.5l-152 41q-66 18 -112 41t-82.5 59t-54 89.5t-17.5 125.5q0 67 26.5 124.5t81 104t146.5 73t213 26.5q208 0 346 -53l-68 -232q-158 45 -313 45q-59 0 -83 -22t-24 -54q0 -33 18.5 -48 t69.5 -27l156 -39q80 -19 134.5 -49t84 -71t41.5 -86.5t12 -105.5q0 -52 -14 -99.5t-49 -93t-88 -79t-136 -54t-188 -20.5q-200 0 -401 66z" />
<glyph unicode="t" horiz-adv-x="745" d="M8 778v234l166 20l12 250l308 35v-287h202v-252h-202v-340q0 -129 26 -164q26 -32 88 -32q60 0 119 10l31 -234q-109 -34 -291 -34q-79 0 -143 25.5t-97 68.5q-65 85 -65 295v405h-154z" />
<glyph unicode="u" horiz-adv-x="1232" d="M117 428v584l334 43v-578q0 -130 16 -174q24 -61 117 -61q87 0 196 51v719l332 43v-1055h-328v113q-157 -142 -366 -142q-126 0 -201.5 54t-87.5 151q-12 91 -12 252z" />
<glyph unicode="v" horiz-adv-x="1187" d="M8 1030h365q138 -379 233 -688q64 221 223 688h353l-408 -1030h-362z" />
<glyph unicode="w" horiz-adv-x="1742" d="M35 1030h362q116 -472 148 -647q37 168 174 647h350q127 -462 162 -647q35 201 147 647h330l-301 -1030h-363q-116 412 -172 672q-65 -274 -184 -672h-360z" />
<glyph unicode="x" horiz-adv-x="1228" d="M20 0l377 528l-354 502h414q131 -192 172 -262q42 69 174 262h381l-365 -475l389 -555h-413q-144 208 -197 289q-5 -7 -67 -97t-136 -192h-375z" />
<glyph unicode="y" horiz-adv-x="1187" d="M8 1030h365q158 -466 231 -729q110 377 225 729h353l-361 -995q-41 -112 -94.5 -200t-111 -147t-131 -104t-143.5 -72.5t-159 -50.5l-88 265q140 39 228.5 103.5t128.5 170.5h-60z" />
<glyph unicode="z" horiz-adv-x="1038" d="M41 0v211q399 455 485 547h-463l25 272h881v-213q-377 -426 -494 -547h529v-270h-963z" />
<glyph unicode="{" horiz-adv-x="784" d="M51 489v127q112 13 154.5 79t42.5 200v215q0 199 111 279.5t372 80.5v-155q-51 0 -85 -7t-65.5 -28t-47 -65t-15.5 -111v-242q0 -134 -52 -205.5t-163 -103.5q103 -21 159 -94.5t56 -196.5v-225q0 -136 56 -189t157 -53v-155q-255 0 -369 75t-114 271v231 q0 140 -45 201.5t-152 70.5z" />
<glyph unicode="|" horiz-adv-x="471" d="M139 -342v1843h193v-1843h-193z" />
<glyph unicode="}" horiz-adv-x="784" d="M53 -205q51 0 86.5 7.5t67.5 28.5t47.5 64t15.5 109v242q0 133 51.5 205t159.5 104q-211 42 -211 293v223q0 136 -57 190t-160 54v155q127 0 214.5 -16.5t151 -56.5t93 -108t29.5 -169v-229q0 -140 43.5 -201t148.5 -72v-126q-110 -13 -151 -78t-41 -199v-217 q0 -197 -113 -277.5t-375 -80.5v155z" />
<glyph unicode="~" horiz-adv-x="1433" d="M154 551q170 233 350 233q51 0 100 -15t135 -62q107 -60 185 -60q60 0 106 31.5t103 112.5l149 -121q-83 -121 -164.5 -180.5t-195.5 -59.5t-236 68q-115 65 -180 65q-104 0 -207 -137z" />
<glyph unicode="&#xa1;" horiz-adv-x="628" d="M106 -401q0 70 46 893h272q43 -805 43 -893h-361zM106 815q0 95 53.5 143t135.5 48q76 0 131 -46t55 -145q0 -97 -54 -145.5t-136 -48.5q-75 0 -130 46t-55 148z" />
<glyph unicode="&#xa2;" horiz-adv-x="1126" d="M121 504q0 245 115.5 386.5t336.5 166.5v200h181v-196q123 -9 231 -45l-70 -258q-114 41 -233 41q-56 0 -97 -12t-75.5 -42t-52 -88.5t-17.5 -144.5q0 -266 240 -266q73 0 127 12.5t125 42.5l86 -211q-138 -74 -264 -90v-207h-181v197q-214 7 -333 144.5t-119 369.5z" />
<glyph unicode="&#xa3;" horiz-adv-x="1300" d="M145 0v227q131 55 199 129t68 140v12h-236v192h176q-73 156 -73 273q0 172 113.5 273.5t344.5 101.5q251 0 424 -74l-92 -262q-121 53 -254 53q-95 0 -139.5 -45t-44.5 -117q0 -83 57 -203h342v-192h-315v-14q0 -69 -47 -130t-138 -96q145 4 676 4v-272h-1061z" />
<glyph unicode="&#xa4;" d="M57 295l136 137q-78 112 -78 246t78 246l-136 137l125 121l133 -133q115 73 242 73q128 0 242 -71l135 131l121 -121l-131 -135q73 -106 73 -248q0 -141 -73 -246l133 -137l-123 -125l-133 133q-101 -65 -244 -65q-139 0 -244 63l-131 -131zM305 682q0 -125 69.5 -196.5 t182.5 -71.5q112 0 181 71.5t69 192.5q0 125 -68.5 195.5t-181.5 70.5q-109 0 -180.5 -72t-71.5 -190z" />
<glyph unicode="&#xa5;" horiz-adv-x="1396" d="M51 1323h385q202 -368 266 -514q12 26 22 46t25 49t25.5 48t35.5 64t41.5 75t58 104t71.5 128h365l-314 -532h180v-150h-268l-82 -139v-4h350v-150h-350v-348h-334v348h-342v150h342v4l-82 139h-260v150h174z" />
<glyph unicode="&#xa6;" horiz-adv-x="471" d="M139 -264v688h193v-688h-193zM139 696v688h193v-688h-193z" />
<glyph unicode="&#xa7;" horiz-adv-x="1120" d="M66 -150l96 230q223 -100 389 -100q108 0 108 73q0 28 -18.5 49.5t-79 54t-180.5 81.5q-167 69 -233 143t-66 182q0 87 55 157t162 101q-143 114 -143 262q0 63 23.5 119.5t71.5 105t133 77t198 28.5t232 -27t202 -65l-90 -229q-221 82 -344 82q-53 0 -79 -22.5 t-26 -51.5q0 -37 45 -71.5t189 -98.5q138 -62 209 -113.5t99 -106.5t28 -137q0 -84 -55.5 -149.5t-151.5 -99.5q87 -60 122 -118t35 -128q0 -161 -121.5 -250.5t-343.5 -89.5q-111 0 -241.5 29t-224.5 83zM365 637q0 -52 94 -102q22 -12 98.5 -51t118.5 -64q38 11 63 36 t25 60q0 26 -18 47.5t-66 46.5q-104 55 -221 119q-34 -8 -64 -31t-30 -61z" />
<glyph unicode="&#xa8;" horiz-adv-x="411" d="M-129 1341q0 71 39.5 108.5t103.5 37.5q61 0 97 -36t36 -110q0 -67 -38 -104t-101 -37q-61 0 -99 35t-38 106zM264 1341q0 71 39.5 108.5t104.5 37.5q60 0 96.5 -36.5t36.5 -109.5q0 -67 -39 -104t-101 -37t-99.5 34.5t-37.5 106.5z" />
<glyph unicode="&#xa9;" horiz-adv-x="1662" d="M111 690q0 151 54.5 284.5t149.5 229.5t228.5 151.5t285.5 55.5q154 0 289 -55.5t230.5 -151t150.5 -229t55 -285.5q0 -151 -54.5 -284t-149.5 -228t-230 -150t-289 -55q-153 0 -287.5 55.5t-229 150.5t-149 228t-54.5 283zM199 690q0 -177 80 -321.5t225 -229t327 -84.5 q181 0 326 84t225 229t80 322q0 179 -80.5 324.5t-226 229t-326.5 83.5q-180 0 -325 -84t-225 -229.5t-80 -323.5zM418 678q0 227 114.5 348t335.5 121q141 0 254 -39l-57 -207q-87 31 -188 31q-98 0 -148.5 -54t-50.5 -194q0 -123 54 -177t142 -54q62 0 104 10.5t99 36.5 l72 -168q-79 -45 -155.5 -63.5t-180.5 -18.5q-186 0 -290.5 115t-104.5 313z" />
<glyph unicode="&#xaa;" horiz-adv-x="735" d="M43 684q0 70 31.5 109t95.5 57q95 26 266 33v26q0 38 -14 58q-17 22 -76 22q-83 0 -221 -37l-37 146q73 27 162 43t160 16q85 0 142 -22t85 -82q20 -44 20 -164v-400h-202l-6 60q-65 -74 -181 -74q-107 0 -166 64t-59 145zM260 686q0 -31 19.5 -48t56.5 -17q60 0 102 36 v103q-54 0 -131 -17q-47 -13 -47 -57z" />
<glyph unicode="&#xab;" horiz-adv-x="1189" d="M68 522l340 381h260l-306 -377l306 -391h-262zM510 522l342 381h258l-303 -377l303 -391h-258z" />
<glyph unicode="&#xac;" horiz-adv-x="1433" d="M168 500v207h1065v-637h-215v430h-850z" />
<glyph unicode="&#xad;" horiz-adv-x="622" d="M70 412v225h483v-225h-483z" />
<glyph unicode="&#xae;" horiz-adv-x="1662" d="M111 690q0 151 54.5 284.5t149.5 229.5t228.5 151.5t285.5 55.5q154 0 289 -55.5t230.5 -151t150.5 -229t55 -285.5q0 -151 -54.5 -284t-149.5 -228t-230 -150t-289 -55q-153 0 -287.5 55.5t-229 150.5t-149 228t-54.5 283zM199 690q0 -177 80 -321.5t225 -229t327 -84.5 q181 0 326 84t225 229t80 322q0 179 -80.5 324.5t-226 229t-326.5 83.5q-180 0 -325 -84t-225 -229.5t-80 -323.5zM510 281v852h313q129 0 215 -25q154 -49 154 -227q0 -186 -160 -250l199 -350h-242l-162 313h-43h-57v-313h-217zM727 760h64q100 0 133 16q43 21 43 86 q0 66 -47 86q-31 15 -113 15h-80v-203z" />
<glyph unicode="&#xaf;" horiz-adv-x="411" d="M-106 1204v180h624v-180h-624z" />
<glyph unicode="&#xb0;" horiz-adv-x="602" d="M43 1147q0 121 73 195.5t185 74.5q125 0 192.5 -73t67.5 -185q0 -123 -75 -195.5t-189 -72.5t-184 75t-70 181zM152 1153q0 -68 41.5 -113t105.5 -45q68 0 111 45.5t43 118.5q0 26 -7.5 50.5t-24 48t-48 37.5t-74.5 14q-71 0 -109 -45t-38 -111z" />
<glyph unicode="&#xb1;" horiz-adv-x="1433" d="M184 0v207h1065v-207h-1065zM184 737v209h424v408h219v-408h422v-209h-422v-411h-217v411h-426z" />
<glyph unicode="&#xb2;" horiz-adv-x="831" d="M70 868v142q210 141 344 268q80 74 80 158q0 46 -27.5 75t-87.5 29q-109 0 -229 -57l-58 147q76 42 163 65t159 23q156 0 234.5 -66t78.5 -186q0 -80 -38.5 -145t-110.5 -129q-75 -64 -207 -152q118 4 383 4v-176h-684z" />
<glyph unicode="&#xb3;" horiz-adv-x="831" d="M70 879l36 172q87 -25 177 -25q82 0 127.5 12.5t61 33.5t15.5 56q0 84 -131 84q-75 0 -102 -4v160q94 4 143 17t63.5 31.5t14.5 51.5q0 72 -98 72q-114 0 -230 -47l-51 149q162 76 314 76q147 0 217.5 -56t70.5 -159q0 -53 -40.5 -104t-118.5 -74q92 -13 140 -62.5 t48 -125.5q0 -144 -101 -216.5t-317 -72.5q-107 0 -239 31z" />
<glyph unicode="&#xb4;" horiz-adv-x="411" d="M-78 1188l246 325h324l-334 -325h-236z" />
<glyph unicode="&#xb5;" horiz-adv-x="1275" d="M143 -414v1424l334 43v-576q0 -128 17 -172q21 -63 116 -63q88 0 197 51v717l332 43v-1053h-328l-2 113q-38 -67 -100 -97t-125 -30q-95 0 -125 55q4 -139 4 -455h-320z" />
<glyph unicode="&#xb6;" horiz-adv-x="1196" d="M98 922q0 217 140.5 339.5t439.5 122.5h342v-1650h-121v1544h-235v-1544h-119v745q-111 0 -198 35t-140.5 96t-81 140.5t-27.5 171.5z" />
<glyph unicode="&#xb7;" horiz-adv-x="512" d="M74 543q0 96 54 146t130 50t129 -46t53 -150q0 -93 -51.5 -141t-136.5 -48q-72 0 -125 46t-53 143z" />
<glyph unicode="&#xb8;" horiz-adv-x="411" d="M-20 -477l55 151q61 -20 115 -20q73 0 73 51q0 62 -90 62q-29 0 -76 -7l101 260h157l-47 -112q168 -23 168 -193q0 -92 -73 -155.5t-224 -63.5q-39 0 -88 9t-71 18z" />
<glyph unicode="&#xb9;" horiz-adv-x="831" d="M127 1540q182 118 250 164h198v-836h-217v623q-104 -64 -149 -86z" />
<glyph unicode="&#xba;" horiz-adv-x="800" d="M45 799q0 358 373 358q169 0 253.5 -83t84.5 -243q0 -178 -94 -269t-275 -91q-163 0 -252.5 83.5t-89.5 244.5zM276 823q0 -82 15.5 -126t39 -57t64.5 -13q66 0 96.5 37t30.5 143q0 104 -24 149t-95 45q-69 0 -98 -43.5t-29 -134.5z" />
<glyph unicode="&#xbb;" horiz-adv-x="1189" d="M82 137l301 377l-301 391h256l344 -387l-344 -381h-256zM522 905h262l340 -387l-342 -381h-258l303 377z" />
<glyph unicode="&#xbc;" horiz-adv-x="1804" d="M102 1161q182 118 250 164h199v-836h-217v623q-100 -62 -150 -86zM465 0l649 1319h139l-647 -1319h-141zM918 186v121l374 529h234v-480h129v-170h-129v-198h-221v198h-387zM1120 356h185q0 181 2 271q-53 -86 -187 -271z" />
<glyph unicode="&#xbd;" horiz-adv-x="1804" d="M104 1161q182 118 250 164h199v-836h-217v623q-100 -62 -150 -86zM451 0l649 1319h139l-647 -1319h-141zM1040 0v141q207 139 344 269q80 74 80 157q0 46 -27 75.5t-87 29.5q-108 0 -230 -58l-57 148q76 42 162.5 65t158.5 23q156 0 235 -66t79 -186q0 -79 -38.5 -144.5 t-111.5 -129.5q-75 -64 -207 -152q118 4 383 4v-176h-684z" />
<glyph unicode="&#xbe;" horiz-adv-x="1804" d="M106 500l37 172q88 -25 176 -25q82 0 128 12.5t61.5 34t15.5 56.5q0 84 -131 84q-68 0 -102 -5v160q93 4 142.5 17.5t64 32t14.5 51.5q0 71 -98 71q-114 0 -230 -47l-51 150q160 75 313 75q147 0 218 -56t71 -159q0 -53 -41 -104t-119 -74q92 -13 140.5 -62.5 t48.5 -125.5q0 -144 -101 -216.5t-317 -72.5q-108 0 -240 31zM557 0l649 1319h140l-648 -1319h-141zM993 186v121l375 529h234v-480h129v-170h-129v-198h-222v198h-387zM1196 356h184q0 181 2 271q-58 -95 -186 -271z" />
<glyph unicode="&#xbf;" horiz-adv-x="974" d="M74 -100q0 112 43 194.5t170 179.5q66 52 87 81.5t21 78.5q0 35 -2 41l275 17q12 -40 12 -89q0 -58 -18.5 -98t-75.5 -90q-94 -81 -133 -135.5t-39 -114.5q0 -141 170 -141q125 0 258 43l53 -246q-74 -29 -187 -47t-188 -18q-222 0 -334 83t-112 261zM344 809 q0 95 52 142.5t139 47.5q74 0 129 -46t55 -144q0 -95 -56 -145t-135 -50q-77 0 -130.5 46t-53.5 149z" />
<glyph unicode="&#xc0;" horiz-adv-x="1409" d="M8 0l500 1384h407l486 -1384h-375l-98 299h-451l-102 -299h-367zM254 1806h350l363 -325h-254zM563 584h285q-125 408 -135 446q-12 -40 -150 -446z" />
<glyph unicode="&#xc1;" horiz-adv-x="1409" d="M8 0l500 1384h407l486 -1384h-375l-98 299h-451l-102 -299h-367zM481 1481l365 325h346l-459 -325h-252zM563 584h285q-125 408 -135 446q-12 -40 -150 -446z" />
<glyph unicode="&#xc2;" horiz-adv-x="1409" d="M8 0l500 1384h407l486 -1384h-375l-98 299h-451l-102 -299h-367zM299 1481l283 282h258l276 -282h-233l-176 131l-179 -131h-229zM563 584h285q-125 408 -135 446q-12 -40 -150 -446z" />
<glyph unicode="&#xc3;" horiz-adv-x="1409" d="M8 0l500 1384h407l486 -1384h-375l-98 299h-451l-102 -299h-367zM338 1481q12 127 75 204.5t154 77.5q76 0 154 -37q70 -34 106 -34q34 0 51.5 17.5t30.5 70.5h170q-15 -135 -76 -210t-151 -75q-72 0 -164 47q-61 31 -94 31q-54 0 -78 -92h-178zM563 584h285 q-125 408 -135 446q-12 -40 -150 -446z" />
<glyph unicode="&#xc4;" horiz-adv-x="1409" d="M8 0l500 1384h407l486 -1384h-375l-98 299h-451l-102 -299h-367zM360 1638q0 72 40 110t104 38q61 0 98 -37t37 -111q0 -67 -38.5 -103t-100.5 -36t-101 34.5t-39 104.5zM563 584h285q-125 408 -135 446q-12 -40 -150 -446zM776 1638q0 73 39 110.5t105 37.5 q60 0 96.5 -36.5t36.5 -111.5q0 -67 -39 -103t-101 -36t-99.5 34.5t-37.5 104.5z" />
<glyph unicode="&#xc5;" horiz-adv-x="1409" d="M8 0l500 1384h407l486 -1384h-375l-98 299h-451l-102 -299h-367zM524 1640q0 81 54.5 134t134.5 53q84 0 134 -50t50 -132q0 -77 -53 -134t-133 -57q-81 0 -134 54t-53 132zM563 584h285q-125 408 -135 446q-12 -40 -150 -446zM616 1640q0 -46 25.5 -74t73.5 -28 q43 0 67.5 28.5t24.5 75.5q0 48 -26 74.5t-70 26.5q-43 0 -69 -28t-26 -75z" />
<glyph unicode="&#xc6;" horiz-adv-x="2086" d="M2 0l807 1384h1171v-301h-610v-223h531v-299h-531v-266h658v-295h-1002v313h-430l-182 -313h-412zM748 606h278v502q-77 -149 -278 -502z" />
<glyph unicode="&#xc7;" horiz-adv-x="1277" d="M70 657q0 365 177 560.5t498 195.5q264 0 435 -76l-90 -262q-141 55 -302 55q-68 0 -119 -10t-100 -39t-80 -79t-50 -134.5t-19 -199.5q0 -103 18.5 -178t49 -120t77.5 -71.5t95.5 -35.5t111.5 -9q91 0 176 25.5t189 74.5l98 -237q-227 -138 -487 -146l-27 -67 q172 -27 172 -201q0 -95 -74 -161t-227 -66q-42 0 -93 9t-71 19l55 156q61 -20 119 -20q76 0 76 53q0 63 -94 63q-38 0 -78 -6l88 227q-257 32 -390.5 207t-133.5 473z" />
<glyph unicode="&#xc8;" horiz-adv-x="1189" d="M109 1806h350l362 -325h-254zM133 0v1384h948v-301h-604v-223h531v-299h-531v-266h656v-295h-1000z" />
<glyph unicode="&#xc9;" horiz-adv-x="1189" d="M133 0v1384h948v-301h-604v-223h531v-299h-531v-266h656v-295h-1000zM399 1460l365 326h346l-459 -326h-252z" />
<glyph unicode="&#xca;" horiz-adv-x="1189" d="M133 0v1384h948v-301h-604v-223h531v-299h-531v-266h656v-295h-1000zM209 1481l283 282h258l276 -282h-233l-177 131l-178 -131h-229z" />
<glyph unicode="&#xcb;" horiz-adv-x="1189" d="M133 0v1384h948v-301h-604v-223h531v-299h-531v-266h656v-295h-1000zM262 1638q0 72 40 110t104 38q61 0 98 -37t37 -111q0 -67 -39 -103t-101 -36t-100.5 34.5t-38.5 104.5zM678 1638q0 73 39 110.5t104 37.5q60 0 96.5 -36.5t36.5 -111.5q0 -67 -38.5 -103t-100.5 -36 t-99.5 34.5t-37.5 104.5z" />
<glyph unicode="&#xcc;" horiz-adv-x="610" d="M-150 1806h351l362 -325h-254zM133 0v1384h344v-1384h-344z" />
<glyph unicode="&#xcd;" horiz-adv-x="610" d="M74 1460l364 326h346l-458 -326h-252zM133 0v1384h344v-1384h-344z" />
<glyph unicode="&#xce;" horiz-adv-x="610" d="M-109 1481l283 282h258l277 -282h-234l-176 131l-178 -131h-230zM133 0v1384h344v-1384h-344z" />
<glyph unicode="&#xcf;" horiz-adv-x="610" d="M-47 1638q0 72 39.5 110t103.5 38q61 0 98 -37t37 -111q0 -67 -38.5 -103t-100.5 -36t-100.5 34.5t-38.5 104.5zM133 0v1384h344v-1384h-344zM369 1638q0 73 39 110.5t104 37.5q60 0 96.5 -36.5t36.5 -111.5q0 -67 -38.5 -103t-100.5 -36t-99.5 34.5t-37.5 104.5z" />
<glyph unicode="&#xd0;" horiz-adv-x="1415" d="M16 602v221h117v559h297q268 0 432 -28q486 -79 486 -615q0 -262 -84 -428.5t-289 -247.5q-72 -29 -178 -43.5t-188.5 -17t-225.5 -2.5h-250v602h-117zM477 295h92q154 0 238 35q97 36 140.5 130t43.5 253q0 107 -30.5 191.5t-92.5 123.5q-48 33 -117.5 44t-168.5 11 h-105v-260h264v-221h-264v-307z" />
<glyph unicode="&#xd1;" horiz-adv-x="1439" d="M133 0v1384h402q245 -408 321 -539t121 -224q-6 176 -8 763h338v-1384h-363q-96 169 -196 343.5t-138.5 242t-76.5 135.5t-66 123q4 -106 4 -844h-338zM362 1481q12 127 75.5 204.5t154.5 77.5q75 0 153 -37q70 -34 107 -34q34 0 51.5 17.5t30.5 70.5h170 q-15 -135 -76 -210t-151 -75q-72 0 -164 47q-61 31 -95 31q-27 0 -45.5 -21t-31.5 -71h-179z" />
<glyph unicode="&#xd2;" horiz-adv-x="1488" d="M70 664q0 749 698 749q323 0 487 -172t164 -512q0 -374 -179.5 -566t-516.5 -192q-308 0 -480.5 177t-172.5 516zM317 1806h351l362 -325h-254zM420 709q0 -116 18 -201.5t46.5 -134.5t73 -78t87 -38t98.5 -9q74 0 128.5 19.5t99.5 66t68.5 133.5t23.5 213 q0 244 -68 350.5t-243 106.5q-169 0 -250.5 -103.5t-81.5 -324.5z" />
<glyph unicode="&#xd3;" horiz-adv-x="1488" d="M70 664q0 749 698 749q323 0 487 -172t164 -512q0 -374 -179.5 -566t-516.5 -192q-308 0 -480.5 177t-172.5 516zM420 709q0 -116 18 -201.5t46.5 -134.5t73 -78t87 -38t98.5 -9q74 0 128.5 19.5t99.5 66t68.5 133.5t23.5 213q0 244 -68 350.5t-243 106.5 q-169 0 -250.5 -103.5t-81.5 -324.5zM524 1475l365 325h346l-459 -325h-252z" />
<glyph unicode="&#xd4;" horiz-adv-x="1488" d="M70 664q0 749 698 749q323 0 487 -172t164 -512q0 -374 -179.5 -566t-516.5 -192q-308 0 -480.5 177t-172.5 516zM350 1481l283 282h258l276 -282h-233l-176 131l-178 -131h-230zM420 709q0 -116 18 -201.5t46.5 -134.5t73 -78t87 -38t98.5 -9q74 0 128.5 19.5t99.5 66 t68.5 133.5t23.5 213q0 244 -68 350.5t-243 106.5q-169 0 -250.5 -103.5t-81.5 -324.5z" />
<glyph unicode="&#xd5;" horiz-adv-x="1488" d="M70 664q0 749 698 749q323 0 487 -172t164 -512q0 -374 -179.5 -566t-516.5 -192q-308 0 -480.5 177t-172.5 516zM373 1481q12 127 75 204.5t154 77.5q76 0 154 -37q70 -34 106 -34q34 0 51.5 17.5t30.5 70.5h170q-15 -135 -76 -210t-151 -75q-72 0 -164 47 q-61 31 -94 31q-54 0 -78 -92h-178zM420 709q0 -116 18 -201.5t46.5 -134.5t73 -78t87 -38t98.5 -9q74 0 128.5 19.5t99.5 66t68.5 133.5t23.5 213q0 244 -68 350.5t-243 106.5q-169 0 -250.5 -103.5t-81.5 -324.5z" />
<glyph unicode="&#xd6;" horiz-adv-x="1488" d="M70 664q0 749 698 749q323 0 487 -172t164 -512q0 -374 -179.5 -566t-516.5 -192q-308 0 -480.5 177t-172.5 516zM397 1638q0 72 40 110t104 38q61 0 98 -37t37 -111q0 -67 -38.5 -103t-100.5 -36t-101 34.5t-39 104.5zM420 709q0 -116 18 -201.5t46.5 -134.5t73 -78 t87 -38t98.5 -9q74 0 128.5 19.5t99.5 66t68.5 133.5t23.5 213q0 244 -68 350.5t-243 106.5q-169 0 -250.5 -103.5t-81.5 -324.5zM813 1638q0 73 39 110.5t104 37.5q60 0 97 -37t37 -111q0 -67 -39 -103t-101 -36t-99.5 34.5t-37.5 104.5z" />
<glyph unicode="&#xd7;" horiz-adv-x="1433" d="M242 930l151 155l322 -327l334 327l145 -155l-328 -326l322 -315l-148 -156l-327 318l-318 -322l-147 152l319 323z" />
<glyph unicode="&#xd8;" horiz-adv-x="1488" d="M70 664q0 749 698 749q188 0 324 -59l104 153l145 -96l-104 -154q182 -173 182 -528q0 -373 -180 -565.5t-516 -192.5q-184 0 -320 62l-106 -158l-147 100l106 158q-186 177 -186 531zM420 709q0 -175 39 -281l459 672q-64 37 -166 37q-169 0 -250.5 -103.5t-81.5 -324.5 zM575 285q59 -35 168 -35q74 0 128.5 19t99.5 65.5t68.5 133t23.5 212.5q0 182 -33 274z" />
<glyph unicode="&#xd9;" horiz-adv-x="1429" d="M123 580v804h344v-802q0 -148 22 -205q20 -57 78.5 -93t149.5 -36q175 0 229 125q25 70 25 207v804h338v-782q0 -289 -76 -409q-140 -222 -533 -222q-370 0 -505 215q-72 114 -72 394zM238 1806h350l362 -325h-254z" />
<glyph unicode="&#xda;" horiz-adv-x="1429" d="M123 580v804h344v-802q0 -148 22 -205q20 -57 78.5 -93t149.5 -36q175 0 229 125q25 70 25 207v804h338v-782q0 -289 -76 -409q-140 -222 -533 -222q-370 0 -505 215q-72 114 -72 394zM518 1460l365 326h346l-459 -326h-252z" />
<glyph unicode="&#xdb;" horiz-adv-x="1429" d="M123 580v804h344v-802q0 -148 22 -205q20 -57 78.5 -93t149.5 -36q175 0 229 125q25 70 25 207v804h338v-782q0 -289 -76 -409q-140 -222 -533 -222q-370 0 -505 215q-72 114 -72 394zM303 1481l283 282h258l276 -282h-233l-176 131l-179 -131h-229z" />
<glyph unicode="&#xdc;" horiz-adv-x="1429" d="M123 580v804h344v-802q0 -148 22 -205q20 -57 78.5 -93t149.5 -36q178 0 229 125q25 61 25 207v804h338v-782q0 -289 -76 -409q-140 -222 -533 -222q-370 0 -505 215q-72 114 -72 394zM371 1638q0 72 39.5 110t103.5 38q61 0 98 -37t37 -111q0 -67 -38.5 -103t-100.5 -36 t-100.5 34.5t-38.5 104.5zM786 1638q0 73 39 110.5t105 37.5q60 0 96.5 -36.5t36.5 -111.5q0 -67 -38.5 -103t-100.5 -36t-100 34.5t-38 104.5z" />
<glyph unicode="&#xdd;" horiz-adv-x="1349" d="M8 1382h395q28 -53 70.5 -132t58 -109t41.5 -79t35.5 -68.5t25 -50.5t24.5 -51.5t20 -45.5q48 99 289 536h374l-497 -866v-516h-344v516zM475 1460l365 326h346l-459 -326h-252z" />
<glyph unicode="&#xde;" horiz-adv-x="1280" d="M133 0v1384h344v-204h96q171 0 269 -15q191 -30 283 -132.5t92 -299.5q0 -180 -83 -302t-247 -161q-135 -30 -293 -30h-117v-240h-344zM477 506h90q137 0 191 20q106 41 106 179q0 133 -121 165q-54 15 -161 15h-105v-379z" />
<glyph unicode="&#xdf;" horiz-adv-x="1245" d="M121 0v823q0 175 19.5 275t60.5 164q138 221 448 221q108 0 189 -21.5t125 -53t70.5 -74.5t34 -76.5t7.5 -69.5q0 -115 -112 -234q-49 -51 -64.5 -78t-15.5 -49q0 -32 53 -73q112 -92 178 -160q84 -91 84 -240q0 -170 -113.5 -272t-298.5 -102q-145 0 -280 53l88 258 q68 -33 151 -33q53 0 82 23.5t29 62.5q0 60 -47 102q-25 23 -92 72t-90 68q-74 65 -74 141q0 85 82 180q52 61 78 111t26 102q0 53 -27.5 82t-78.5 29q-88 0 -131 -66q-47 -74 -47 -252v-913h-334z" />
<glyph unicode="&#xe0;" d="M63 309q0 109 48 171t145 91q141 44 416 54v43q0 65 -23 94q-27 39 -123 39q-135 0 -340 -60l-53 226q110 43 245 67.5t243 24.5q130 0 217 -35.5t131 -128.5q35 -74 35 -258v-637h-308l-6 96q-105 -119 -284 -119q-84 0 -151.5 29.5t-108 78t-62 106.5t-21.5 118z M205 1513h325l244 -325h-233zM385 311q0 -51 32 -80.5t91 -29.5q53 0 90.5 16t75.5 47v168q-127 -7 -209 -26q-80 -22 -80 -95z" />
<glyph unicode="&#xe1;" d="M63 309q0 109 48 171t145 91q141 44 416 54v43q0 65 -23 94q-27 39 -123 39q-135 0 -340 -60l-53 226q110 43 245 67.5t243 24.5q130 0 217 -35.5t131 -128.5q35 -74 35 -258v-637h-308l-6 96q-105 -119 -284 -119q-84 0 -151.5 29.5t-108 78t-62 106.5t-21.5 118z M375 1188l246 325h323l-334 -325h-235zM385 311q0 -51 32 -80.5t91 -29.5q53 0 90.5 16t75.5 47v168q-127 -7 -209 -26q-80 -22 -80 -95z" />
<glyph unicode="&#xe2;" d="M63 309q0 109 48 171t145 91q141 44 416 54v43q0 65 -23 94q-27 39 -123 39q-135 0 -340 -60l-53 226q110 43 245 67.5t243 24.5q130 0 217 -35.5t131 -128.5q35 -74 35 -258v-637h-308l-6 96q-105 -119 -284 -119q-84 0 -151.5 29.5t-108 78t-62 106.5t-21.5 118z M199 1188l241 311h254l236 -311h-230l-137 158l-137 -158h-227zM385 311q0 -51 32 -80.5t91 -29.5q53 0 90.5 16t75.5 47v168q-127 -7 -209 -26q-80 -22 -80 -95z" />
<glyph unicode="&#xe3;" d="M63 309q0 109 48 171t145 91q141 44 416 54v43q0 65 -23 94q-27 39 -123 39q-135 0 -340 -60l-53 226q110 43 245 67.5t243 24.5q130 0 217 -35.5t131 -128.5q35 -74 35 -258v-637h-308l-6 96q-105 -119 -284 -119q-84 0 -151.5 29.5t-108 78t-62 106.5t-21.5 118z M223 1184q9 125 69.5 203.5t147.5 78.5q64 0 144 -36l21 -10.5t22 -10.5t18 -7.5t20 -6.5t17 -2q30 0 47.5 19t30.5 71h160q-12 -135 -69 -209t-144 -74q-68 0 -154 47q-67 31 -86 31q-50 0 -76 -94h-168zM385 311q0 -51 32 -80.5t91 -29.5q53 0 90.5 16t75.5 47v168 q-127 -7 -209 -26q-80 -22 -80 -95z" />
<glyph unicode="&#xe4;" d="M63 309q0 109 48 171t145 91q141 44 416 54v43q0 65 -23 94q-27 39 -123 39q-135 0 -340 -60l-53 226q110 43 245 67.5t243 24.5q130 0 217 -35.5t131 -128.5q35 -74 35 -258v-637h-308l-6 96q-105 -119 -284 -119q-84 0 -151.5 29.5t-108 78t-62 106.5t-21.5 118z M246 1341q0 71 39.5 108.5t103.5 37.5q61 0 97 -36t36 -110q0 -67 -38 -104t-101 -37q-61 0 -99 35t-38 106zM385 311q0 -51 32 -80.5t91 -29.5q53 0 90.5 16t75.5 47v168q-127 -7 -209 -26q-80 -22 -80 -95zM639 1341q0 71 39 108.5t104 37.5q60 0 96.5 -36.5t36.5 -109.5 q0 -67 -38.5 -104t-100.5 -37t-99.5 34.5t-37.5 106.5z" />
<glyph unicode="&#xe5;" d="M63 309q0 109 48 171t145 91q141 44 416 54v43q0 65 -23 94q-27 39 -123 39q-135 0 -340 -60l-53 226q110 43 245 67.5t243 24.5q130 0 217 -35.5t131 -128.5q35 -74 35 -258v-637h-308l-6 96q-105 -119 -284 -119q-84 0 -151.5 29.5t-108 78t-62 106.5t-21.5 118z M385 311q0 -51 32 -80.5t91 -29.5q53 0 90.5 16t75.5 47v168q-127 -7 -209 -26q-80 -22 -80 -95zM389 1341q0 83 55 136t138 53q87 0 137.5 -50t50.5 -134q0 -79 -54 -137t-136 -58t-136.5 55.5t-54.5 134.5zM481 1341q0 -46 27 -76t76 -30q45 0 70.5 30.5t25.5 77.5t-28 76 t-72 29t-71.5 -30.5t-27.5 -76.5z" />
<glyph unicode="&#xe6;" horiz-adv-x="1730" d="M63 305q0 66 17.5 115.5t50 81t70.5 50.5t88 32q136 36 403 43v41q0 61 -26 94q-29 39 -121 39q-140 0 -359 -56l-45 222q118 39 264.5 65.5t243.5 26.5q194 0 252 -119q45 57 130.5 88t187.5 31q113 0 196.5 -30t132 -77t77.5 -118.5t38.5 -142t9.5 -159.5 q0 -54 -6 -104h-663q0 -32 10 -70q46 -139 235 -139q179 0 332 72l86 -197q-129 -68 -232.5 -95.5t-263.5 -27.5q-111 0 -205 39t-143 99q-155 -132 -417 -132q-85 0 -153 30.5t-108 79.5t-61 105t-21 113zM387 303q0 -46 32 -75t97 -29q57 0 112.5 25t92.5 59 q-23 61 -29 149q-140 -8 -225 -33q-46 -14 -63 -37t-17 -59zM1014 639h356q2 16 2 45q0 70 -41.5 111t-124.5 41q-86 0 -136 -51t-56 -146z" />
<glyph unicode="&#xe7;" horiz-adv-x="989" d="M63 492q0 277 140.5 422t412.5 145q170 0 312 -45l-72 -254q-103 37 -229 37q-57 0 -98.5 -13t-74.5 -44.5t-50 -91.5t-17 -148q0 -279 238 -279q76 0 126.5 11.5t120.5 41.5l89 -204q-93 -48 -175.5 -71t-183.5 -26l-27 -65q168 -23 168 -193q0 -92 -73 -155.5 t-224 -63.5q-39 0 -88 9t-71 18l55 151q61 -20 115 -20q73 0 73 51q0 62 -90 62q-28 0 -75 -7l84 220q-183 29 -284.5 164t-101.5 348z" />
<glyph unicode="&#xe8;" d="M63 496q0 139 42 248t115 177t166.5 103t201.5 35q87 0 156.5 -15.5t118 -42t84 -67t56.5 -83.5t33.5 -100t16.5 -108t4 -115q0 -73 -6 -108h-664q0 -17 4 -41q14 -72 71.5 -115t162.5 -43q188 0 340 70l86 -195q-119 -67 -233 -96t-251 -29q-242 0 -373 142.5 t-131 382.5zM197 1513h325l244 -325h-234zM397 631h359q2 12 2 49q0 154 -172 154q-86 0 -137 -54t-52 -149z" />
<glyph unicode="&#xe9;" d="M63 496q0 139 42 248t115 177t166.5 103t201.5 35q87 0 156.5 -15.5t118 -42t84 -67t56.5 -83.5t33.5 -100t16.5 -108t4 -115q0 -73 -6 -108h-664q0 -17 4 -41q14 -72 71.5 -115t162.5 -43q188 0 340 70l86 -195q-119 -67 -233 -96t-251 -29q-242 0 -373 142.5 t-131 382.5zM397 631h359q2 12 2 49q0 154 -172 154q-86 0 -137 -54t-52 -149zM414 1188l245 325h324l-334 -325h-235z" />
<glyph unicode="&#xea;" d="M63 496q0 139 42 248t115 177t166.5 103t201.5 35q87 0 156.5 -15.5t118 -42t84 -67t56.5 -83.5t33.5 -100t16.5 -108t4 -115q0 -73 -6 -108h-664q0 -17 4 -41q14 -72 71.5 -115t162.5 -43q188 0 340 70l86 -195q-119 -67 -233 -96t-251 -29q-242 0 -373 142.5 t-131 382.5zM231 1188l242 311h254l236 -311h-230l-137 158l-137 -158h-228zM397 631h359q2 12 2 49q0 154 -172 154q-86 0 -137 -54t-52 -149z" />
<glyph unicode="&#xeb;" d="M63 496q0 139 42 248t115 177t166.5 103t201.5 35q87 0 156.5 -15.5t118 -42t84 -67t56.5 -83.5t33.5 -100t16.5 -108t4 -115q0 -73 -6 -108h-664q0 -17 4 -41q14 -72 71.5 -115t162.5 -43q188 0 340 70l86 -195q-119 -67 -233 -96t-251 -29q-242 0 -373 142.5 t-131 382.5zM264 1341q0 71 40 108.5t104 37.5q61 0 97 -36t36 -110q0 -67 -38.5 -104t-101.5 -37q-61 0 -99 35t-38 106zM397 631h359q2 12 2 49q0 154 -172 154q-86 0 -137 -54t-52 -149zM657 1341q0 71 39.5 108.5t104.5 37.5q60 0 96.5 -36.5t36.5 -109.5 q0 -67 -38.5 -104t-100.5 -37t-100 35t-38 106z" />
<glyph unicode="&#xec;" horiz-adv-x="571" d="M-68 1513h326l244 -325h-234zM121 0v1016l334 43v-1059h-334z" />
<glyph unicode="&#xed;" horiz-adv-x="571" d="M76 1188l246 325h323l-334 -325h-235zM117 0v1016l334 43v-1059h-334z" />
<glyph unicode="&#xee;" horiz-adv-x="571" d="M-84 1188l242 311h254l235 -311h-229l-137 158l-138 -158h-227zM121 0v1016l334 43v-1059h-334z" />
<glyph unicode="&#xef;" horiz-adv-x="571" d="M-55 1341q0 71 39.5 108.5t103.5 37.5q61 0 97 -36t36 -110q0 -67 -38 -104t-101 -37q-61 0 -99 35t-38 106zM117 0v1016l334 43v-1059h-334zM338 1341q0 71 39 108.5t104 37.5q60 0 96.5 -36.5t36.5 -109.5q0 -67 -38.5 -104t-100.5 -37t-99.5 34.5t-37.5 106.5z" />
<glyph unicode="&#xf0;" horiz-adv-x="1212" d="M63 479q0 254 140.5 398.5t374.5 144.5q99 0 153 -45q-48 109 -131 184l-197 -123l-100 150l143 90q-54 29 -139 61l121 207q139 -41 254 -112l219 141l103 -156l-166 -106q151 -143 230 -335t79 -419q0 -132 -32 -237.5t-98 -185t-175.5 -122.5t-257.5 -43 q-241 0 -381 139.5t-140 368.5zM408 524q0 -175 48.5 -244t149.5 -69q199 0 199 287q0 160 -41.5 236.5t-151.5 76.5q-102 0 -153 -75t-51 -212z" />
<glyph unicode="&#xf1;" horiz-adv-x="1232" d="M121 0v1012l330 43v-140q86 67 190.5 105.5t198.5 38.5q120 0 187 -52.5t79 -150.5q10 -74 10 -262v-594h-332v535q0 148 -14 194q-23 62 -111 62q-91 0 -204 -52v-739h-334zM274 1184q9 125 70 203.5t148 78.5q63 0 143 -36l21 -10.5t22 -10.5t18 -7.5t20 -6.5t17 -2 q30 0 47.5 19t30.5 71h160q-12 -135 -69 -209t-144 -74q-68 0 -154 47q-67 31 -86 31q-50 0 -76 -94h-168z" />
<glyph unicode="&#xf2;" horiz-adv-x="1214" d="M63 494q0 565 572 565q258 0 386 -131.5t128 -386.5q0 -280 -143 -425t-418 -145q-251 0 -388 133.5t-137 389.5zM262 1513h326l243 -325h-233zM408 528q0 -99 13 -163t40 -97t59.5 -45t81.5 -12q50 0 84.5 12t62 43.5t41 90t13.5 147.5q0 169 -38.5 242t-152.5 73 q-109 0 -156.5 -72t-47.5 -219z" />
<glyph unicode="&#xf3;" horiz-adv-x="1214" d="M63 494q0 565 572 565q258 0 386 -131.5t128 -386.5q0 -280 -143 -425t-418 -145q-251 0 -388 133.5t-137 389.5zM408 528q0 -99 13 -163t40 -97t59.5 -45t81.5 -12q50 0 84.5 12t62 43.5t41 90t13.5 147.5q0 169 -38.5 242t-152.5 73q-109 0 -156.5 -72t-47.5 -219z M424 1188l246 325h323l-334 -325h-235z" />
<glyph unicode="&#xf4;" horiz-adv-x="1214" d="M63 494q0 565 572 565q258 0 386 -131.5t128 -386.5q0 -280 -143 -425t-418 -145q-251 0 -388 133.5t-137 389.5zM250 1188l242 311h253l236 -311h-229l-138 158l-137 -158h-227zM408 528q0 -99 13 -163t40 -97t59.5 -45t81.5 -12q50 0 84.5 12t62 43.5t41 90t13.5 147.5 q0 169 -38.5 242t-152.5 73q-109 0 -156.5 -72t-47.5 -219z" />
<glyph unicode="&#xf5;" horiz-adv-x="1214" d="M63 494q0 565 572 565q258 0 386 -131.5t128 -386.5q0 -280 -143 -425t-418 -145q-251 0 -388 133.5t-137 389.5zM264 1184q9 125 69.5 203.5t147.5 78.5q64 0 144 -36l21 -10.5t22 -10.5t18 -7.5t20 -6.5t17 -2q30 0 47.5 19t30.5 71h160q-12 -135 -69 -209t-144 -74 q-68 0 -154 47q-67 31 -86 31q-50 0 -76 -94h-168zM408 528q0 -99 13 -163t40 -97t59.5 -45t81.5 -12q50 0 84.5 12t62 43.5t41 90t13.5 147.5q0 169 -38.5 242t-152.5 73q-109 0 -156.5 -72t-47.5 -219z" />
<glyph unicode="&#xf6;" horiz-adv-x="1214" d="M63 494q0 565 572 565q258 0 386 -131.5t128 -386.5q0 -280 -143 -425t-418 -145q-251 0 -388 133.5t-137 389.5zM287 1341q0 71 39.5 108.5t103.5 37.5q61 0 97 -36t36 -110q0 -67 -38 -104t-101 -37q-61 0 -99 35t-38 106zM408 528q0 -99 13 -163t40 -97t59.5 -45 t81.5 -12q50 0 84.5 12t62 43.5t41 90t13.5 147.5q0 169 -38.5 242t-152.5 73q-109 0 -156.5 -72t-47.5 -219zM680 1341q0 71 39 108.5t104 37.5q60 0 96.5 -36.5t36.5 -109.5q0 -67 -38.5 -104t-100.5 -37t-99.5 34.5t-37.5 106.5z" />
<glyph unicode="&#xf7;" horiz-adv-x="1433" d="M184 500v211h1065v-211h-1065zM588 229q0 70 36.5 104t98.5 34q129 0 129 -138q0 -137 -135 -137q-58 0 -93.5 32.5t-35.5 104.5zM588 971q0 70 36.5 103.5t98.5 33.5q129 0 129 -137t-135 -137q-58 0 -93.5 32.5t-35.5 104.5z" />
<glyph unicode="&#xf8;" horiz-adv-x="1214" d="M63 494q0 565 574 565q122 0 217 -31l107 152l139 -88l-101 -146q150 -129 150 -405q0 -280 -143.5 -426t-417.5 -146q-135 0 -236 37l-88 -129l-143 88l88 129q-146 137 -146 400zM393 528q0 -102 10 -153l302 436q-40 16 -91 16q-118 0 -169.5 -74t-51.5 -225zM500 221 q37 -18 102 -18q54 0 91 12.5t66.5 44.5t43.5 92.5t14 151.5q0 92 -12 160z" />
<glyph unicode="&#xf9;" horiz-adv-x="1232" d="M117 428v584l334 43v-578q0 -130 16 -174q24 -61 117 -61q87 0 196 51v719l332 43v-1055h-328v113q-157 -142 -366 -142q-126 0 -201.5 54t-87.5 151q-12 91 -12 252zM260 1513h326l243 -325h-233z" />
<glyph unicode="&#xfa;" horiz-adv-x="1232" d="M117 428v584l334 43v-578q0 -130 16 -174q24 -61 117 -61q87 0 196 51v719l332 43v-1055h-328v113q-157 -142 -366 -142q-126 0 -201.5 54t-87.5 151q-12 91 -12 252zM424 1188l246 325h323l-334 -325h-235z" />
<glyph unicode="&#xfb;" horiz-adv-x="1232" d="M117 428v584l334 43v-578q0 -130 16 -174q24 -61 117 -61q87 0 196 51v719l332 43v-1055h-328v113q-157 -142 -366 -142q-126 0 -201.5 54t-87.5 151q-12 91 -12 252zM258 1188l242 311h254l235 -311h-229l-137 158l-138 -158h-227z" />
<glyph unicode="&#xfc;" horiz-adv-x="1232" d="M117 428v584l334 43v-578q0 -130 16 -174q24 -61 117 -61q87 0 196 51v719l332 43v-1055h-328v113q-157 -142 -366 -142q-126 0 -201.5 54t-87.5 151q-12 91 -12 252zM291 1341q0 71 39.5 108.5t103.5 37.5q61 0 97 -36t36 -110q0 -67 -38 -104t-101 -37q-61 0 -99 35 t-38 106zM684 1341q0 71 39 108.5t104 37.5q60 0 97 -36.5t37 -109.5q0 -67 -39 -104t-101 -37t-99.5 34.5t-37.5 106.5z" />
<glyph unicode="&#xfd;" horiz-adv-x="1187" d="M8 1030h365q158 -466 231 -729q110 377 225 729h353l-361 -995q-41 -112 -95 -200t-111.5 -147t-130.5 -104t-143 -72.5t-159 -50.5l-88 265q140 39 228.5 103.5t128.5 170.5h-60zM414 1188l245 325h324l-334 -325h-235z" />
<glyph unicode="&#xfe;" horiz-adv-x="1228" d="M121 -504v1985l334 43v-586q67 49 160 85t182 36q180 0 274 -129.5t94 -384.5q0 -283 -142.5 -425.5t-395.5 -142.5q-102 0 -172 17v-498h-334zM455 246q73 -17 151 -17q104 0 156.5 65.5t52.5 223.5q0 148 -45.5 210.5t-132.5 62.5q-82 0 -182 -43v-502z" />
<glyph unicode="&#xff;" horiz-adv-x="1187" d="M8 1030h365q158 -466 231 -729q110 377 225 729h353l-361 -995q-41 -112 -95 -200t-111.5 -147t-130.5 -104t-143 -72.5t-159 -50.5l-88 265q140 39 228.5 103.5t128.5 170.5h-60zM287 1341q0 71 39.5 108.5t103.5 37.5q61 0 97 -36t36 -110q0 -67 -38 -104t-101 -37 q-61 0 -99 35t-38 106zM680 1341q0 71 39 108.5t104 37.5q60 0 96.5 -36.5t36.5 -109.5q0 -67 -38.5 -104t-100.5 -37t-99.5 34.5t-37.5 106.5z" />
<glyph unicode="&#x152;" horiz-adv-x="2027" d="M70 682q0 185 53 326.5t147 226.5t214.5 127.5t263.5 42.5q135 0 245 -21h928v-301h-606v-223h530v-299h-530v-266h655v-295h-966q-110 -20 -254 -20q-327 0 -503.5 171t-176.5 531zM420 690q0 -122 23 -207t71 -135t114 -72t158 -22q84 0 185 22v822q-70 24 -160 24 q-91 0 -158.5 -20.5t-122 -68t-82.5 -134t-28 -209.5z" />
<glyph unicode="&#x153;" horiz-adv-x="1841" d="M63 494q0 565 574 565q242 0 342 -127q127 127 340 127q115 0 200.5 -29t135.5 -75t80.5 -116t40.5 -139.5t10 -156.5q0 -88 -6 -123h-662q0 -4 0.5 -9.5t1.5 -16t2 -19.5q11 -70 71 -113t169 -43q180 0 332 70l86 -195q-223 -123 -480 -123q-228 0 -346 127 q-115 -127 -366 -127t-388 133.5t-137 389.5zM408 528q0 -99 13 -163.5t40 -97.5t60 -45.5t81 -12.5q50 0 84.5 12.5t62 44t41 90.5t13.5 148q0 169 -37.5 242t-151.5 73q-108 0 -157 -72.5t-49 -218.5zM1124 629h361q2 14 2 43q-3 162 -170 162q-89 0 -138.5 -54 t-54.5 -151z" />
<glyph unicode="&#x178;" horiz-adv-x="1349" d="M8 1382h395q28 -53 70.5 -132t58 -109t41.5 -79t35.5 -68.5t25 -50.5t24.5 -51.5t20 -45.5q48 99 289 536h374l-497 -866v-516h-344v516zM340 1638q0 72 39.5 110t103.5 38q61 0 98 -37t37 -111q0 -67 -38.5 -103t-100.5 -36t-100.5 34.5t-38.5 104.5zM756 1638 q0 73 39 110.5t104 37.5q60 0 96.5 -36.5t36.5 -111.5q0 -67 -38.5 -103t-100.5 -36t-99.5 34.5t-37.5 104.5z" />
<glyph unicode="&#x2c6;" horiz-adv-x="411" d="M-160 1188l242 311h254l235 -311h-229l-137 158l-137 -158h-228z" />
<glyph unicode="&#x2dc;" horiz-adv-x="411" d="M-141 1184q9 125 69.5 203.5t147.5 78.5q63 0 143 -36l21 -10.5t22 -10.5t18 -7.5t20 -6.5t17 -2q30 0 47.5 19t30.5 71h160q-12 -135 -69 -209t-144 -74q-68 0 -154 47q-67 31 -86 31q-49 0 -75 -94h-168z" />
<glyph unicode="&#x2000;" horiz-adv-x="913" />
<glyph unicode="&#x2001;" horiz-adv-x="1827" />
<glyph unicode="&#x2002;" horiz-adv-x="913" />
<glyph unicode="&#x2003;" horiz-adv-x="1827" />
<glyph unicode="&#x2004;" horiz-adv-x="609" />
<glyph unicode="&#x2005;" horiz-adv-x="456" />
<glyph unicode="&#x2006;" horiz-adv-x="304" />
<glyph unicode="&#x2007;" horiz-adv-x="304" />
<glyph unicode="&#x2008;" horiz-adv-x="228" />
<glyph unicode="&#x2009;" horiz-adv-x="365" />
<glyph unicode="&#x200a;" horiz-adv-x="101" />
<glyph unicode="&#x2010;" horiz-adv-x="622" d="M70 412v225h483v-225h-483z" />
<glyph unicode="&#x2011;" horiz-adv-x="622" d="M70 412v225h483v-225h-483z" />
<glyph unicode="&#x2012;" horiz-adv-x="622" d="M70 412v225h483v-225h-483z" />
<glyph unicode="&#x2013;" horiz-adv-x="1064" d="M70 426v195h927v-195h-927z" />
<glyph unicode="&#x2014;" horiz-adv-x="1851" d="M70 426v195h1714v-195h-1714z" />
<glyph unicode="&#x2018;" horiz-adv-x="471" d="M49 868q17 135 70.5 297t105.5 269h187q-31 -110 -59.5 -267.5t-39.5 -298.5h-264z" />
<glyph unicode="&#x2019;" horiz-adv-x="468" d="M41 868q78 281 98 568h262q-16 -137 -68 -299.5t-104 -268.5h-188z" />
<glyph unicode="&#x201a;" horiz-adv-x="468" d="M41 -225q78 286 98 569h262q-16 -137 -67.5 -298t-104.5 -271h-188z" />
<glyph unicode="&#x201c;" horiz-adv-x="831" d="M49 868q17 136 70 298.5t104 267.5h189q-31 -110 -59.5 -267.5t-39.5 -298.5h-264zM412 868q17 136 70 298.5t104 267.5h188q-31 -112 -59.5 -269t-38.5 -297h-264z" />
<glyph unicode="&#x201d;" horiz-adv-x="831" d="M41 868q78 281 98 568h262q-16 -137 -68 -299.5t-104 -268.5h-188zM403 868q31 110 59.5 267.5t39.5 300.5h264q-19 -137 -72 -300t-104 -268h-187z" />
<glyph unicode="&#x201e;" horiz-adv-x="831" d="M41 -225q78 286 98 569h262q-16 -137 -67.5 -298t-104.5 -271h-188zM403 -225q31 112 59.5 270t39.5 299h264q-19 -138 -71.5 -299t-104.5 -270h-187z" />
<glyph unicode="&#x2022;" horiz-adv-x="755" d="M109 559q0 138 76.5 208.5t191.5 70.5q54 0 100.5 -14t85.5 -45t61.5 -87t22.5 -133q0 -132 -77 -202t-197 -70q-109 0 -186.5 70t-77.5 202z" />
<glyph unicode="&#x2026;" horiz-adv-x="2045" d="M156 160q0 94 55.5 143t132.5 49q78 0 132 -45.5t54 -146.5q0 -90 -53 -136.5t-139 -46.5q-72 0 -127 44.5t-55 138.5zM836 160q0 93 56 142.5t134 49.5q77 0 130.5 -45.5t53.5 -146.5q0 -91 -51.5 -137t-138.5 -46q-33 0 -64 9.5t-58.5 30t-44.5 57.5t-17 86zM1518 160 q0 93 56 142.5t132 49.5q78 0 132 -45.5t54 -146.5q0 -91 -52 -137t-140 -46q-32 0 -62.5 9.5t-58 30t-44.5 57.5t-17 86z" />
<glyph unicode="&#x202f;" horiz-adv-x="365" />
<glyph unicode="&#x2039;" horiz-adv-x="747" d="M68 522l340 381h260l-306 -377l306 -391h-262z" />
<glyph unicode="&#x203a;" horiz-adv-x="735" d="M82 137l303 377l-303 391h244l342 -387l-342 -381h-244z" />
<glyph unicode="&#x205f;" horiz-adv-x="456" />
<glyph unicode="&#x20ac;" horiz-adv-x="1476" d="M186 446v148h140v29q0 42 4 116h-144v150h168q54 224 205 341.5t389 117.5q231 0 404 -72l-88 -254q-132 53 -269 53q-57 0 -100 -8t-83 -28t-69 -57.5t-47 -92.5h394v-150h-422q-4 -33 -4 -106v-39h426v-148h-408q29 -117 100.5 -158.5t190.5 -41.5q82 0 159.5 23 t174.5 69l94 -232q-115 -70 -223 -102.5t-248 -32.5q-254 0 -403 121.5t-189 353.5h-152z" />
<glyph unicode="&#x2122;" horiz-adv-x="1773" d="M111 1212v172h577v-172h-196v-555h-197v555h-184zM797 657l26 727h260q90 -236 121 -342q28 91 127 342h248l23 -727h-199q-13 384 -14 465q-67 -199 -121 -346h-142q-97 256 -127 344q-5 -239 -14 -463h-188z" />
<glyph unicode="&#x25fc;" horiz-adv-x="1034" d="M0 0v1034h1034v-1034h-1034z" />
</font>
</defs>
</svg>
